<?xml version="1.0" encoding="UTF-8"?>
<svg id="Layer_1" data-name="Layer 1" xmlns="http://www.w3.org/2000/svg" viewBox="0 0 512 512">
  <defs>
    <style>
      .cls-1 {
        stroke-miterlimit: 10;
      }

      .cls-1, .cls-2 {
        fill: none;
        stroke: #0a0a0a;
        stroke-linecap: round;
        stroke-width: 6px;
      }

      .cls-3 {
        fill: #e2c7e0;
      }

      .cls-4 {
        fill: #f5f5f5;
      }

      .cls-2 {
        stroke-linejoin: round;
      }
    </style>
  </defs>
  <circle class="cls-3" cx="161" cy="184" r="102"/>
  <g>
    <g>
      <path class="cls-1" d="M185.82,109.9h6.5c26.88,0,48.7,21.82,48.7,48.7v262.17c0,11.42-9.28,20.7-20.7,20.7h-62.5c-11.42,0-20.7-9.28-20.7-20.7V158.6c0-26.88,21.82-48.7,48.7-48.7Z"/>
      <path class="cls-1" d="M180.93,57.5h16.29c8.72,0,15.8,7.08,15.8,15.8v36.6h-47.88v-36.6c0-8.72,7.08-15.8,15.8-15.8Z"/>
    </g>
    <g>
      <path class="cls-4" d="M364.85,441.47l-113.67,7.82c-9.56-5.21-24.32-.8-24.32-13.57v-119.68c0-12.77,10.35-23.12,23.12-23.12l120.95,5.21c12.77,0-9.56,44.56-9.56,57.33l2.61,46.91c0,12.77,13.64,39.09.87,39.09Z"/>
      <g>
        <line class="cls-1" x1="226.66" y1="320.56" x2="226.66" y2="441.15"/>
        <line class="cls-1" x1="364.11" y1="320.56" x2="364.11" y2="441.15"/>
        <path class="cls-1" d="M226.48,441.46c14.57,5.72,39.13,13.28,70.28,13.04,29.64-.23,53.08-7.42,67.38-13.04"/>
        <path class="cls-2" d="M370.84,297.91c-15.65,1.33-41.31,3.03-73.76,3.09-34.1.06-60.99-1.73-76.93-3.09v19.02c15.95,1.35,42.83,3.14,76.93,3.09,32.45-.05,58.11-1.76,73.76-3.09v-19.02Z"/>
        <path class="cls-1" d="M220.14,298.01c20.97-2.84,44.79-4.87,71-5.07,29.73-.23,56.53,1.93,79.7,5.07"/>
      </g>
    </g>
  </g>
</svg>