<?xml version="1.0" encoding="UTF-8"?>
<svg id="Layer_1" data-name="Layer 1" xmlns="http://www.w3.org/2000/svg" viewBox="0 0 512 512">
  <defs>
    <style>
      .cls-1 {
        fill: none;
        stroke: #000;
        stroke-linecap: round;
        stroke-linejoin: round;
        stroke-width: 6px;
      }

      .cls-2 {
        fill: #e2c7e0;
      }
    </style>
  </defs>
  <circle class="cls-2" cx="324" cy="190" r="102"/>
  <path class="cls-1" d="M197,155v52c-1.83-3.38-8.72-14.92-22.27-19.34-2.65-.87-18.9-6.17-28,3-4.4,4.43-5.82,10.92-5.5,16.34h-32.23v-38.34c0-7.54,6.12-13.66,13.66-13.66h74.34Z"/>
  <path class="cls-1" d="M197,238v108h-74.34c-7.54,0-13.66-6.12-13.66-13.66v-94.34h88Z"/>
  <circle class="cls-1" cx="212.5" cy="222.5" r="19.5"/>
  <path class="cls-1" d="M402,168.66v38.34h-118.48c.24-5.34-1.21-11.66-5.52-16-9.1-9.17-25.35-3.86-28-3-13.55,4.42-20.17,15.62-22,19v-52h160.34c7.54,0,13.66,6.12,13.66,13.66Z"/>
  <path class="cls-1" d="M402,238v94.34c0,7.54-6.12,13.66-13.66,13.66h-160.34v-108h174Z"/>
  <path class="cls-1" d="M109,210.26v62.48l-16.3-10.06c-6.42-3.96-8.41-12.38-4.45-18.8l20.75-33.62Z"/>
  <path class="cls-1" d="M281.9,155h-138.8l31.11-50.41c3.96-6.42,12.37-8.42,18.79-4.45l88.9,54.86Z"/>
  <path class="cls-1" d="M369.53,346l-31.93,51.75c-3.97,6.42-12.38,8.41-18.8,4.45l-91.08-56.2h141.81Z"/>
  <path class="cls-1" d="M423.55,258.45l-21.55,34.93v-64.27l17.1,10.55c6.42,3.96,8.41,12.37,4.45,18.79Z"/>
  <circle class="cls-1" cx="212.5" cy="222.5" r="19.5"/>
  <circle class="cls-1" cx="212.5" cy="222.5" r="19.5"/>
  <path class="cls-1" d="M230.88,237.96c27.88-.95,48.74-12.09,52.12-26.96.28-1.23.46-2.58.52-4"/>
  <path class="cls-1" d="M177,238c-29.47,21.47-35.46,29.32-34,32,1.41,2.6,9.12-.92,17,4,7.55,4.72,7.5,12.34,11,13,3.95.75,11.07-7.62,25-46"/>
  <path class="cls-1" d="M248.36,238.53c29.47,21.47,35.46,29.32,34,32-1.41,2.6-9.12-.92-17,4-7.55,4.72-7.5,12.34-11,13-3.95.75-11.07-7.62-25-46"/>
  <path class="cls-1" d="M283.52,207c.24-5.34-1.21-11.66-5.52-16-9.1-9.17-25.35-3.86-28-3-13.55,4.42-20.17,15.62-22,19v-52h-31v52c-1.83-3.38-8.72-14.92-22.27-19.34-2.65-.87-18.9-6.17-28,3-4.4,4.43-5.82,10.92-5.5,16.34h-32.23v31h88v108h31v-108h174v-31h-118.48ZM212.5,242c-10.77,0-19.5-8.73-19.5-19.5s8.73-19.5,19.5-19.5,19.5,8.73,19.5,19.5-8.73,19.5-19.5,19.5Z"/>
  <path class="cls-1" d="M141.23,207c.07,1.29.24,2.53.5,3.66,3.38,14.86,24.24,26.01,52.12,26.95"/>
  <path class="cls-1" d="M193,222c2.7-5.36-23.04-28.35-33-23-3.26,1.75-4.68,6.47-4,10,2.47,12.9,34.4,18.16,37,13Z"/>
  <path class="cls-1" d="M234.79,220.79c-2.7-5.36,23.04-28.35,33-23,3.26,1.75,4.68,6.47,4,10-2.47,12.9-34.4,18.16-37,13Z"/>
</svg>