<?xml version="1.0" encoding="UTF-8"?>
<svg id="Layer_1" data-name="Layer 1" xmlns="http://www.w3.org/2000/svg" viewBox="0 0 512 512">
  <defs>
    <style>
      .cls-1 {
        fill: none;
        stroke: #0a0a0a;
        stroke-linecap: round;
        stroke-miterlimit: 10;
        stroke-width: 6px;
      }

      .cls-2 {
        fill: #e2c7e0;
      }
    </style>
  </defs>
  <circle class="cls-2" cx="161" cy="163" r="102"/>
  <path class="cls-1" d="M213.04,132.02c2.74-11.76,7.82-17.72,12-21,5.07-3.97,6.98-2.56,15-8,1.48-1,8.71-6,16-15,5.51-6.81,4.76-8.13,8-11,6.89-6.1,16.5-5.61,26-5,11.31.73,30.33,1.96,44,17,5.7,6.27,8.55,12.83,10,17"/>
  <path class="cls-1" d="M258,74.09c-4.35-5.05-24.43-.82-29.81,12.16-2.53,6.11-2.18,15.04,2.21,17.69,6.18,3.73,19.74-5.39,25.39-16.58,1.33-2.64,5.04-9.98,2.21-13.27Z"/>
  <path class="cls-1" d="M248.04,72.02c-2.81-4.05-9.83-12.93-22-17-19.07-6.38-36.06,3.99-41,7-16.61,10.13-23.14,25.68-30,42-9.98,23.74-11.71,44.86-12,56-.34,12.92-.79,47.08,20,82,16.34,27.44,38.04,42.33,48,49,16.01,10.73,18.46,8.26,50,26,26.37,14.83,39.72,22.5,48,35,13.23,19.97,13.96,43.71,14,46,.35,17.9-5.33,28.63,1,44,3.32,8.06,8.39,13.64,12,17"/>
  <path class="cls-1" d="M192.04,87.02c-13.42,15.98-17.66,30.01-19,40-2.69,20.01,6.03,25.25,6,57-.02,20.01-3.48,24.09,1,34,4.59,10.15,10.22,10.24,24,28,8.72,11.24,7.94,13.09,15,21,9.41,10.53,18.67,16.06,25,20,12.13,7.55,29.27,19.09,52,37"/>
  <path class="cls-1" d="M227.04,96.02c-2.76-.81-9.3-2.3-15,1-5.72,3.3-7.7,9.74-9,16-3.44,16.54-1.51,28.83,0,46,2.63,30.04.15,31.52,4,47,1.72,6.9,4.34,17.15,11,29,7.14,12.72,15.12,20.5,25,30,7.58,7.28,16.05,13.85,33,27,18.37,14.25,22.15,16.38,29,24,4.12,4.59,11.92,13.27,17,25,10.08,23.28,4.33,46.65,1,57"/>
  <path class="cls-1" d="M323.04,102.02c6.57,8.97,7.11,16.35,7,20-.19,6.29-3.13,11.86-9,23-5.72,10.86-6.7,10.17-9,16-5.6,14.18-2.27,24.38-5,25-2.83.64-9.2-9.68-10-21-.36-5.1.52-8.87,2-15,3.54-14.64,7.84-17.59,8-26,.08-4.15-.83-10.32-6-18"/>
  <path class="cls-1" d="M256.04,128.02c2.6,1.8,11.61,8.5,14,20,.22,1.05,1.25,6.29,0,13-.9,4.87-2.65,8.61-4,11"/>
  <path class="cls-1" d="M289.04,152.02c-3.35,1.13-7.95,2.02-12,0-4.5-2.25-5.3-6.58-10-13-2.21-3.02-5.66-7.01-11-11"/>
  <path class="cls-1" d="M253.04,185.02c-.88-2.24-3.32-7.7-7-8-5.09-.42-10.03,9.25-11,17-.17,1.38-1.65,14.71,7,20,2.93,1.79,6.02,2.04,8,2"/>
  <path class="cls-1" d="M343.04,120.02c8.22,13.58,9.53,24.36,9,32-.64,9.15-4.04,15.62,0,23,1.3,2.38,1.97,2.28,10,12,6.71,8.12,6.95,9.05,7,10,.38,7.61-12.36,11.79-11,18,.69,3.12,4.32,3.95,4,7-.29,2.8-3.45,3.02-4,6-.64,3.48,3.33,5.14,3,9-.23,2.68-2.25,3.18-4,6-3.76,6.06.75,11.51-1,18-1.73,6.39-8.42,9.72-13,12-12.93,6.43-26.09,3.42-41,0-12.76-2.92-20.93-4.8-29-12-7.73-6.9-11.32-15.07-13-20"/>
</svg>