<?xml version="1.0" encoding="UTF-8"?>
<svg id="Layer_1" data-name="Layer 1" xmlns="http://www.w3.org/2000/svg" viewBox="0 0 512 512">
  <defs>
    <style>
      .cls-1 {
        fill: none;
        stroke: #0a0a0a;
        stroke-linecap: round;
        stroke-miterlimit: 10;
        stroke-width: 6px;
      }

      .cls-2 {
        fill: #e2c7e0;
      }
    </style>
  </defs>
  <circle class="cls-2" cx="361" cy="204" r="102"/>
  <path class="cls-1" d="M279.02,66.21c13.28-6.37,22.39-5.82,28.35-4,9.27,2.82,9.6,8.29,25.31,16.01,8.76,4.3,12.22,4.35,16.2,9,5.43,6.34,5.87,14.27,6.08,18.01.78,13.99-6.85,19.26-3.04,30.01.62,1.74,1.6,4.43,4.05,7,7.05,7.41,16.35,3.41,26.33,9,7.4,4.15,10.74,11.08,12.15,14.01,5.46,11.33,4.55,25.77-2.03,36.01-5.61,8.74-11.87,9.02-12.15,15.01-.31,6.72,7.48,8.28,14.18,20.01,1.69,2.97,6.63,11.86,6.08,23.01-.62,12.48-7.79,21.71-11.14,26.01-8.44,10.85-14.23,10.52-15.19,17.01-1.16,7.8,6.96,10.04,11.14,24.01,3.31,11.06,1.39,20.29,1.01,22.01-1.01,4.56-4.73,17.67-16.2,25.01-9.43,6.03-15.65,2.78-22.28,10-4.7,5.13-5.64,11.21-6.08,14.01-1.26,8.18.68,18.23,7.09,24.01,1.45,1.31,4.1,3.63,8.1,4,2.66.25,4.84-.47,6.08-1"/>
  <path class="cls-1" d="M260.8,75.22c-10.52,1.08-15.57,4.82-18.23,8-4.61,5.52-2.74,10.15-8.1,16.01-3.54,3.86-7.49,5.27-15.19,8-13.78,4.9-18.18,2.51-22.28,7-3.2,3.5-3.15,8.67-3.04,19.01.14,13.26,3.06,16.66,1.01,26.01-.89,4.08-1.79,8.18-5.06,12-6.62,7.75-14.37,4.34-21.26,11-5.64,5.44-7.8,14.8-6.08,22.01,2.15,8.99,9.1,9.38,14.18,22.01,1.09,2.72,3.07,7.67,3.04,14.01-.07,12.78-8.29,15.73-11.14,30.01-.77,3.85-2.46,12.35,1.01,21.01,5.45,13.55,17.52,12.4,20.25,23.01,2.47,9.61-6.92,12.49-8.1,29.01-.31,4.37-1,16.52,7.09,27.01,5.76,7.47,13.33,10.68,17.21,12,7.2,4.49,10.43,12.85,8.1,20.01-2.69,8.28-11.47,10.82-12.15,11"/>
  <path class="cls-1" d="M282.06,73.22c3.69-.16,13.94-.08,21.26,7,9.72,9.4,8.36,25.44,4.05,35.01-4.1,9.11-9.28,8.83-12.15,18.01-.19.61-4.61,15.42,3.04,24.01,8.53,9.58,24.05,2.43,28.35,10,3.31,5.82-5.16,11.3-8.1,28.01-.99,5.64-3.38,21.02,5.06,31.01,6.38,7.55,13.26,5.27,17.21,13,3.28,6.41,2.28,15.31-2.03,21.01-4.22,5.58-8.35,3.77-13.16,9-6.32,6.88-7.06,18.57-4.05,27.01,3.57,10.01,9.77,8.07,17.21,21.01,7.36,12.81,6.37,23.54,6.08,26.01-.51,4.3-1.11,9.45-5.06,13-5.18,4.66-10.56,1.59-17.21,5-7.24,3.71-12.08,13.07-12.15,21.01-.14,15.18,17.19,20.85,16.2,35.01-.44,6.31-4.3,11.16-7.09,14.01"/>
  <path class="cls-1" d="M266.87,81.22c-7.55,21.58-17.9,31.24-26.33,36.01-5.11,2.9-12.14,5.49-16.2,13-2.79,5.16-4,12.31-2.03,19.01,3.83,12.98,16.86,14.85,16.2,22.01-.51,5.58-8.54,5.66-20.25,16.01-6.49,5.73-15.46,13.67-15.19,24.01.18,6.63,4.13,13.18,9.11,17.01,8.42,6.46,17.49,3.33,20.25,9,2.17,4.44-1.52,10.23-2.03,11-6.13,9.37-17.59,4.53-26.33,13-7.35,7.13-7.97,19.03-6.08,27.01.36,1.5,3.16,12.58,13.16,19.01,9.69,6.23,17.3,2.41,22.28,9,4.55,6.04,2.16,14.54,2.03,15.01-2.31,7.8-8.39,7.72-15.19,18.01-2.6,3.94-5.72,8.66-6.08,15.01-.49,8.8,4.37,17.79,11.14,23.01,8.28,6.38,14.62,3.44,19.24,10,4.34,6.17,2.34,13.86,2.03,15.01-2.35,8.53-10.81,14.95-21.26,16.01"/>
  <path class="cls-1" d="M281.05,83.22c5.47,2.32,11.57,6.04,13.16,12,1.64,6.14-2.52,10.84-12.15,28.01-12.15,21.66-11.66,25.12-11.14,27.01,2.31,8.32,11.36,7.7,19.24,21.01,3.1,5.24,5.67,9.57,5.06,15.01-1.13,10.11-11.8,11-17.21,24.01-.76,1.82-5.33,13.5,0,21.01,5.24,7.37,15.45,4.22,20.25,12,3.6,5.83,1.29,13.16,1.01,14.01-4.12,12.47-19.35,10.58-26.33,24.01-2.77,5.33-4.96,14.45-1.01,21.01,5.01,8.31,15.05,4.46,25.31,15.01,2.26,2.33,8.03,8.43,8.1,17.01.05,6.95-3.67,12.12-5.06,14.01-5.53,7.47-10.27,5.69-17.21,13-1.84,1.94-9.65,10.16-8.1,20.01.19,1.19,1.09,6.11,5.06,10,5.18,5.09,10.13,3.09,15.19,8,3.2,3.1,4.84,7.42,5.06,11,.48,7.82-5.61,15.85-15.19,20.01"/>
  <path class="cls-1" d="M272.95,105.23c-.85,3.77-2.51,9.25-6.08,15.01-8.48,13.7-19.2,15.19-21.26,26.01-.14.73-1.57,8.85,3.04,15.01,5.15,6.88,13.65,5.73,17.21,13,.26.54,2.14,4.52,1.01,9-2.37,9.39-14.71,8.08-23.29,20.01-1.9,2.64-5.92,8.23-5.06,15.01,1.26,9.92,12.27,16.85,14.18,18.01,4.41,2.67,6.56,2.55,10.13,6,1.59,1.54,5.48,5.3,6.08,11,.58,5.54-2.26,9.86-3.04,11-7.07,10.42-19.76,5.49-25.31,14.01-4.62,7.09-.84,18.2,3.04,24.01,3.14,4.7,7.55,7.74,15.19,13,7.64,5.26,9.84,5.37,12.15,9,2.97,4.68,4.35,12.42,1.01,18.01-4.91,8.21-15.45,4.09-22.28,13-3.92,5.11-5.03,12.45-3.04,18.01,1.45,4.03,3.65,4.69,11.14,12,8.11,7.93,12.17,11.89,13.16,16.01.57,2.36,1.8,10.77-13.16,24.01"/>
  <path class="cls-1" d="M324.59,91.22c4.05,8.76,4.97,16,5.06,21.01.28,15.38-7.08,23.45-2.03,33.01,2.39,4.52,6.4,7.19,9.11,9,7.98,5.32,11.71,2.81,18.23,7,9.61,6.19,11.75,18.25,12.15,21.01.21,1.42,1.16,8.61-2.03,17.01-4.39,11.59-12.14,13.52-11.14,19.01,1.03,5.64,9.36,4.41,16.2,13,6.5,8.17,6.19,18.35,6.08,22.01-.29,9.33-3.92,16.1-6.08,20.01-8.64,15.68-20.9,19.73-19.24,26.01,1,3.79,5.56,2.64,11.14,8,9.68,9.31,8.44,24.82,8.1,29.01-.75,9.36-4.31,16.57-7.09,21.01"/>
</svg>