<?xml version="1.0" encoding="UTF-8"?>
<svg id="Layer_1" data-name="Layer 1" xmlns="http://www.w3.org/2000/svg" viewBox="0 0 512 512">
  <defs>
    <style>
      .cls-1 {
        fill: #e2c7e0;
      }

      .cls-2 {
        fill: none;
      }

      .cls-2, .cls-3 {
        stroke: #0a0a0a;
        stroke-miterlimit: 10;
        stroke-width: 6px;
      }

      .cls-3, .cls-4 {
        fill: #f5f5f5;
      }
    </style>
  </defs>
  <circle class="cls-1" cx="363" cy="150" r="102"/>
  <g>
    <g>
      <path class="cls-2" d="M180.49,434.85c.32.79,1.27,2.89,3.2,4.8,3.53,3.49,8.16,4.2,10.24,4.48,16.83,2.31,41.93,2.24,41.93,2.24,10.36-.03,20.69-1.17,31.05-1.6,3.37-.14,9.69-.39,13.76-4.8,1.91-2.07,2.73-4.41,3.52-6.72,1.97-5.79,1.74-10.71,1.6-13.76-.29-6.61.09-13.27-.64-19.84-.48-4.35-.64-16.45-.96-40.65-.27-20.44.51-23.97,1.28-58.25.31-13.81.74-32.9.64-56.33-.18-41.08-1.74-38.98-.96-64.02.49-15.79.41-31.6,1.28-47.37.36-6.5-.22-13.02,0-19.52.34-9.72.98-13.69-1.92-16.96-3.5-3.95-10.44-4.96-11.52-5.12-4.45-.65-6.99.31-8.96-1.6-1.52-1.47-1.55-3.55-1.6-6.72-.35-22.08-.37-21.78-.32-22.73.38-7.3.58-7.63,0-8.64-2.54-4.43-9.38-3.25-27.85-3.52-17.61-.26-25.9-1.54-28.49,3.2-.69,1.26-.68,2.42-.64,4.16.52,23.45,1.04,30.39-2.56,32.97-.58.41-3.05.92-8,1.92-3.51.71-5.01.85-7.36,1.92-1.75.8-3.8,1.76-5.12,3.84-1.38,2.16-1.31,4.47-1.28,5.44.19,6.83-.5,13.67,0,20.48.14,1.87-.03.26-.32,19.52-.21,13.85-.13,15.48-.32,23.69-.2,8.6-.43,13.43-.64,19.2-.47,12.84-.53,21.97-.64,39.37-.04,6.17-.1,18.5.16,51.27.23,29.78.34,27.35.48,50.51.18,29.15.27,43.72,0,54.73-.2,8.21-.05,16.43-.32,24.65-.23,7.15,1.13,14.34.32,21.45-.14,1.2-.57,4.61.96,8.32Z"/>
      <path class="cls-2" d="M205.77,78.29c8.51-.91,18.18-1.47,28.81-1.28,10.39.19,19.84,1.06,28.17,2.24"/>
    </g>
    <rect class="cls-4" x="113" y="302" width="75" height="145" rx="11.6" ry="11.6"/>
    <g>
      <path class="cls-2" d="M348.72,436.98c1.9,3.15,6.31,3.67,13.66,4.2,11.27.82,19.52.97,23.38,1.05,1.63.03,10.56.23,22.07-.79,4.5-.4,8.29-.88,10.25-3.68,1.69-2.41,1.03-5.13.53-9.19-.3-2.38-.2-8.68,0-21.28.09-6.03.47-7.32,1.31-17.86.92-11.59,1.16-18.8,1.58-27.32,2.61-54.1,6.04-97.73,6.04-97.73,0,0,6.94-88.25,14.19-112.17.44-1.47.56-2.2.79-3.68.5-3.22.91-5.84-.26-7.36-1.53-1.98-5.28-1.45-6.3-1.31-1.1.15-20.53.62-59.37,1.58-25.47.63-47.05-5.02-48.86.53-.14.44-.09,1.43,0,3.42.29,6.08,1.45,10.52,1.58,11.03,1.77,7.01,5.83,47.12,7.62,66.99,4.1,45.41,5.14,82.22,6.04,113.75.01.4.42,14.85,1.58,33.36,1.24,19.88,2.41,29.7,3.15,34.94.16,1.11.34,2.36.53,4.2.26,2.58.77,8.91.26,19.7-.26,5.59-.52,6.32.26,7.62Z"/>
      <path class="cls-2" d="M347.94,408.35c9.39,1.68,20.84,2.98,33.89,2.89,14.35-.1,26.8-1.85,36.78-3.94"/>
    </g>
    <g>
      <path class="cls-2" d="M132.61,299.43c6.04.39,12.59.56,19.58.39,5.68-.14,11.04-.49,16.06-.98"/>
      <path class="cls-2" d="M113.81,438.29c1.32,4.1,5.46,6.16,6.46,6.66,2.44,1.21,4.6,1.49,5.29,1.57,16.51,1.95,34.25.24,49.35-.39,2.96-.12,7.59-.28,10.58-3.53,2.92-3.17,2.79-7.68,2.74-9.2,0,0-.31-10.79-.78-57.19-.1-9.53.33-53.34.2-63.85-.01-1.22-.09-4.07-1.96-6.46-1.68-2.15-4.11-3.03-5.48-3.53-2.92-1.06-3.95-.46-8.23-1.76-2.28-.69-3.79-1.41-3.72-1.76.08-.39,2.01.24,3.13-.78.99-.9.69-2.46.59-5.09-.09-2.15.19-4.31.2-6.46.05-10.07,1.15-13.65-.98-15.08-.92-.62-1.74-.36-2.74-1.37-1.31-1.32-1.36-3.23-1.37-4.11-.04-3.19.06-28.97-.2-37.21-.07-2.28-.19-3.97-1.37-5.48-1.93-2.47-7.19-2.46-17.63-2.35-8.36.09-12.57.17-13.91,1.76-.88,1.05-.92,4.96-.98,12.73,0,.02,0,0,0,9.4v6.07c0,4.3,0,4.29,0,4.31.1,6.83.15,10.24.2,10.58.09.61.37,2.32-.59,3.72-.33.48-.72.8-.98.98-1.22.92-2.25.81-2.94,1.18-1.41.75-1.25,3.46-1.18,6.46,0,0,.04,1.4,0,10.77-.02,4.32-.71,6.94.98,8.62,1.6,1.58,4.12,1.35,4.11,1.96,0,.45-1.41.79-4.31,1.37-2.53.51-4.67.9-6.27,1.18,0,0-1.42.54-3.33,1.76-6.35,4.09-5.75,19.63-5.68,21.15.45,62,.66,105.47.39,110.07-.02.39-.12,1.73.39,3.33Z"/>
    </g>
    <g>
      <path class="cls-3" d="M213.07,367.25c-.14-3.71.19-7.43,0-11.13-.1-2-.24-3.48.48-5.32,1.35-3.42,4.48-5.06,4.68-5.16,3.11-1.57,4.77-.16,7.74-1.94,1.58-.94,2.43-2.13,3.23-3.23,1.32-1.83,2.43-4.23,3.23-9.84.28-1.94.53-4.38.65-9.03.25-10.04-.64-10.96.65-12.58.62-.78,1.92-1.95,14.2-2.9,5.94-.46,8.39-.48,8.39-.48,22.34-.21,22.09-.9,40.01-.65,14.89.21,22.82.8,34.2.65,1.78-.02,3.29-.02,6.29,0,2.35.01,9.06.07,17.26.97,4.91.54,6.79.99,7.9,2.58,1.09,1.56.83,3.35.65,5.32,0,0-.49,5.16.32,15.33.77,9.62,3.21,11.79,4.03,12.42.92.71,1.83,1.08,3.55,1.77,4.24,1.72,6.13,1.14,8.55,3.07.34.27,1.52,1.25,2.42,2.9,1.02,1.87,1.18,3.68,1.29,5,.12,1.42.02,2.49,0,2.74-.38,4.49-1.16,25.58-.81,39.68.16,6.31.45,7.48.66,16.91.24,10.9-.21,6.47-.02,13.74.13,4.73.45,11.59-2.1,16.94-.39.82-1,1.91-2.1,2.9-2.43,2.19-5.55,2.33-7.1,2.42-4.8.27-9.55,1.57-14.36,1.45-7.8-.19-15.6.54-23.39.32-17.22-.49-12.88.4-46.14.16-21.79-.16-19.85-.51-32.43-.48-6.29.01-12.58-.47-18.87-.48,0,0-1.8,0-9.03-.65-4.23-.38-6.75-.7-9.36-2.42-.43-.29-1.67-1.11-2.74-2.42-2.85-3.47-2.62-7.98-2.42-12.1,0,0,.34-6.94.81-18.87.09-2.24,0-.94,0-14.36,0-14.24.11-14.41,0-20-.21-10.24-.32-13.23-.32-13.23Z"/>
      <path class="cls-2" d="M362.94,329.83c-18.66-1.03-38.26-1.61-58.72-1.61-25.25,0-49.23.9-71.79,2.42"/>
    </g>
  </g>
</svg>