<?xml version="1.0" encoding="UTF-8"?>
<svg id="Layer_1" data-name="Layer 1" xmlns="http://www.w3.org/2000/svg" viewBox="0 0 512 512">
  <defs>
    <style>
      .cls-1, .cls-2 {
        stroke-linecap: round;
      }

      .cls-1, .cls-2, .cls-3, .cls-4 {
        stroke: #0a0a0a;
        stroke-miterlimit: 10;
      }

      .cls-1, .cls-2, .cls-4 {
        fill: none;
      }

      .cls-1, .cls-3, .cls-4 {
        stroke-width: 6px;
      }

      .cls-5 {
        fill: #e2c7e0;
      }
    </style>
  </defs>
  <circle class="cls-5" cx="348" cy="199" r="102"/>
  <path class="cls-1" d="M231.9,143.26c.61,3.71.94,9.15-1.15,14.9-2.31,6.37-6.11,9.06-11.46,14.9-5.58,6.09-12.61,13.76-16.05,24.07-1.03,3.07-5.38,16.15,0,28.66,3.37,7.82,7.83,9.1,9.17,17.2,1.28,7.72-1.49,14.24-2.29,16.05-3.31,7.5-6.97,7.28-12.61,16.05-2.84,4.41-6.42,9.97-6.88,17.2-.57,8.96,4.27,10.56,5.73,21.78,1.11,8.53-.67,15.46-2.29,21.78-3.42,13.33-7.85,15.72-6.88,24.07.74,6.33,3.54,7.21,4.59,13.76,1.33,8.33-1.79,15.73-4.59,20.63"/>
  <path class="cls-1" d="M328.2,145.55c-2.29,5.08-5.65,14.54-4.59,26.37.32,3.57,1.09,11.31,5.73,19.49,5.66,9.97,11.12,10.12,13.76,18.34,2.54,7.93-.1,15.39-1.15,18.34-5.18,14.64-16.52,14.77-17.2,24.07-.74,10.17,12.52,13.99,11.46,26.37-.46,5.42-3.44,9.79-4.59,11.46-4.84,7.09-9.64,6.94-13.76,13.76-.87,1.44-3.9,6.46-3.44,12.61.66,8.86,7.79,9.56,10.32,19.49,2.47,9.71-1.9,18.7-2.29,19.49-2.73,5.43-5.07,5.21-6.88,10.32-.19.55-3.16,9.33,1.15,17.2,3.62,6.61,8.74,5.94,11.46,11.46,1.59,3.23,2.44,8.74-2.29,18.34"/>
  <path class="cls-1" d="M306.42,151.28c2.22,9.36,2.47,19.23-2.29,27.51-3.11,5.41-5.74,5.58-12.61,13.76-7.89,9.39-13.26,15.79-13.76,24.07-.61,10.33,7.04,12.02,9.17,27.51.52,3.79,1.53,11.17-1.15,19.49-4.03,12.52-11.72,12.51-14.9,24.07-2.62,9.51.06,18.63,1.15,21.78,3.66,10.59,9.7,12.39,9.17,19.49-.27,3.57-1.87,4.06-9.17,14.9-6.17,9.17-9.26,13.76-10.32,18.34-2.2,9.51,1.21,17.96,2.29,20.63,4.1,10.15,8.96,9.7,12.61,19.49,1.09,2.91,4.07,11.26,1.15,20.63-3.35,10.75-12.45,16.41-13.76,17.2-6.98,4.2-10.79,2.53-13.76,6.88-2.95,4.32-2.91,11.44,0,16.05,2.22,3.52,5.13,4.03,8.02,9.17,1.27,2.25,1.93,4.31,2.29,5.73"/>
  <path class="cls-1" d="M245.66,160.46c-13.93,30.01-12.02,42.51-6.88,48.15,4.67,5.11,13.02,5.69,16.05,13.76,2.5,6.67-.51,13.47-1.15,14.9-4.81,10.85-13.96,8.54-18.34,17.2-5.48,10.82,6.41,19.2,1.15,35.54-2.36,7.33-6.99,12.61-8.02,13.76-7.16,7.95-12.23,6.71-17.2,13.76-5.67,8.05-4.77,17.77-4.59,19.49,1.15,10.49,7.3,11.32,6.88,19.49-.4,7.6-5.8,8.41-8.02,19.49-.7,3.47-1.68,8.36,0,13.76,2.67,8.59,8.86,8.16,12.61,16.05,4.26,8.96,1,19.45-1.15,26.37-3.07,9.9-6.56,11.42-6.88,18.34-.35,7.71,3.58,14.16,6.88,18.34"/>
  <path class="cls-1" d="M342.75,144.65c10.67,11.34,15.31,21.86,17.55,29.56,4.24,14.58.37,20.66,6.88,34.39,5.3,11.19,10.39,12.46,11.11,20.88.87,10.16-6.24,11.92-8.82,23.83-3.9,17.98,10.21,23.52,6.88,43.56-1.67,10.05-7.17,20.33-9.17,24.07-5.08,9.5-8.59,12.32-9.17,19.49-.65,7.93,3.18,10.22,3.44,18.34.16,5.22-1.16,12.63-8.02,21.78"/>
  <path class="cls-1" d="M215.85,142.11c-5.45,13.38-11.89,23.08-17.2,29.81-9.07,11.5-13.6,12.79-17.2,21.78-3.89,9.72-2.83,18.82-1.15,33.24,1.92,16.44,5.12,18.81,3.44,28.66-1.01,5.9-3.35,10.81-8.02,20.63-5.96,12.52-8.48,13.95-10.32,21.78-1.24,5.29-2.89,12.28,0,19.49,3.24,8.08,9.1,8.76,11.46,16.05,2.03,6.27-.07,12.64-2.29,17.2"/>
  <g>
    <g>
      <path class="cls-2" d="M244.63,147.37c.52.22,1.19.59,1.8,1.22,1.79,1.84,1.62,4.35,1.57,4.85"/>
      <path class="cls-2" d="M248.5,145.5c.24.2,1.29,1.97,1.14,4.73-.1,1.85-1.13,3.08-1.48,3.47"/>
    </g>
    <g>
      <path class="cls-2" d="M244.86,155.1c.39.16,1.83.79,2.64,2.4,1.04,2.04.25,4.01.13,4.3"/>
      <path class="cls-2" d="M248.5,154.5c.37.45.8,1.12,1,2,.63,2.8-1.66,5.1-1.87,5.3"/>
    </g>
    <path class="cls-2" d="M247.82,154.01c-.49.03-2.04.19-3.31,1.42-2.05,1.99-1.45,4.9-1.41,5.08"/>
    <path class="cls-2" d="M247.5,150.5c-1,0-3.42.77-4.59,2.61-1.27,2-.85,4.16-.69,5.01.21,1.06.59,1.88.88,2.41"/>
    <g>
      <path class="cls-2" d="M248,145.77c-.49.03-2.04.19-3.31,1.42-2.05,1.99-1.45,4.9-1.41,5.08"/>
      <path class="cls-2" d="M247.5,142.5c-1,0-3.25.52-4.42,2.36-1.27,2-.85,4.16-.69,5.01.21,1.06.59,1.88.88,2.41"/>
    </g>
    <path class="cls-2" d="M245.5,139.5c2.39,1.68,2.89,4.93,2.46,5.53"/>
    <path class="cls-2" d="M248.5,138.5c.26.33,1.15,1.55,1.1,3.32-.05,1.95-1.21,3.2-1.48,3.47"/>
    <g>
      <path class="cls-2" d="M248,137.89c-.49.03-2.04.19-3.31,1.42-2.05,1.99-1.45,4.9-1.41,5.08"/>
      <path class="cls-2" d="M247.5,133.5c-.51.15-3.03.92-4.42,3.48-1.19,2.19-.82,4.34-.69,5.01.2,1.05.58,1.87.88,2.41"/>
    </g>
    <path class="cls-2" d="M245.5,131.5c.47.24,1.06.64,1.56,1.28,1.59,2.04.77,4.72.67,5.06"/>
    <path class="cls-2" d="M248.64,130.35c.18.2,1.82,2.1,1.28,4.62-.4,1.87-1.74,2.89-2.09,3.15"/>
    <g>
      <path class="cls-2" d="M249.06,130.82c-.48-.06-2.04-.18-3.52.8-2.38,1.58-2.32,4.55-2.31,4.74"/>
      <path class="cls-2" d="M248.43,127.15c-.59.05-2.55.28-4.03,1.88-1.61,1.74-1.59,3.93-1.59,4.8,0,1.08.24,1.96.43,2.53"/>
    </g>
    <path class="cls-2" d="M247.5,123.5c2,2,1.59,5.88,1.45,6.36"/>
    <path class="cls-2" d="M250.5,122.5c.18.2,1.18,1.97.65,4.5-.4,1.87-1.74,2.89-2.09,3.15"/>
    <g>
      <path class="cls-2" d="M250.29,122.85c-.48-.06-2.04-.18-3.52.8-2.38,1.58-2.32,4.55-2.31,4.74"/>
      <path class="cls-2" d="M250.5,119.5c-1,0-3.4-.03-4.88,1.56-1.61,1.74-1.59,3.93-1.59,4.8,0,1.08.24,1.96.43,2.53"/>
    </g>
    <path class="cls-2" d="M249.5,116.5c2,2,1.03,5.78.81,6.24"/>
    <path class="cls-2" d="M252.5,115.52c1.01,1.45,1.2,3.28.47,4.77-.73,1.48-2.09,2.06-2.47,2.21"/>
    <g>
      <path class="cls-2" d="M252.83,116.05c-.47-.14-1.98-.53-3.6.18-2.61,1.15-3.06,4.09-3.09,4.28"/>
      <path class="cls-2" d="M252.83,112.33c-.59-.05-2.56-.16-4.3,1.16-1.89,1.43-2.24,3.6-2.38,4.46-.18,1.07-.1,1.97,0,2.56"/>
    </g>
    <path class="cls-2" d="M250.5,109.5c4,2,2.34,5.31,2.21,5.8"/>
    <path class="cls-2" d="M254.5,108.5c.2.42.9,1.98.4,3.93-.47,1.84-1.7,2.86-2.08,3.15"/>
    <g>
      <path class="cls-2" d="M254.03,108.28c-.48-.06-2.04-.18-3.51.8-2.37,1.58-2.31,4.56-2.3,4.75"/>
      <path class="cls-2" d="M253.39,104.62c-.59.05-2.55.29-4.03,1.89-1.61,1.74-1.59,3.93-1.58,4.8.01,1.08.24,1.96.44,2.53"/>
    </g>
    <path class="cls-2" d="M252.5,101.5c2,3,1.54,5.96,1.41,6.44"/>
    <path class="cls-2" d="M255.5,101.5c.19.33.98,1.74.6,3.58-.39,1.93-1.78,2.94-2.08,3.15"/>
    <g>
      <path class="cls-2" d="M255.24,100.93c-.48-.06-2.04-.18-3.51.8-2.37,1.58-2.31,4.56-2.3,4.75"/>
      <path class="cls-2" d="M256.5,97.5c-2-1-4.46.05-5.94,1.65-1.61,1.74-1.59,3.93-1.58,4.8.01,1.08.24,1.96.44,2.53"/>
    </g>
    <path class="cls-2" d="M255.5,94.5c.26.38.5.85.68,1.41.74,2.31-.29,4.42-.63,5.06"/>
    <path class="cls-2" d="M258.5,94.5c.12.29.9,2.22-.11,4.25-.87,1.75-2.46,2.38-2.81,2.52"/>
    <path class="cls-2" d="M258.61,94.52c-.45-.18-1.93-.69-3.6-.12-2.7.93-3.39,3.82-3.43,4.01"/>
    <path class="cls-2" d="M259.5,90.5c-.53-.08-2.83-.38-4.96,1.11-2.03,1.42-2.57,3.53-2.75,4.24-.27,1.04-.27,1.95-.22,2.55"/>
    <g>
      <path class="cls-2" d="M258.5,87.5c.36.33.71.76.97,1.32,1.07,2.3-.45,4.77-.63,5.06"/>
      <path class="cls-2" d="M261.5,87.5c.13.24,1.34,1.86.19,4.16-.86,1.71-2.41,2.36-2.81,2.52"/>
    </g>
    <path class="cls-2" d="M261.9,87.43c-.45-.18-1.93-.69-3.6-.12-2.7.93-3.39,3.82-3.43,4.01"/>
    <path class="cls-2" d="M264.5,83.5c-.68-.24-2.74-.87-5,0-3.32,1.28-4.27,4.71-4.41,5.26-.27,1.06-.27,1.97-.22,2.55"/>
    <path class="cls-2" d="M263.5,81.5c.37.35.78.86.97,1.56.41,1.5-.38,3.26-1.97,4.44"/>
    <path class="cls-2" d="M267.5,82.5c-.01.44-.12,2.33-1.65,3.89-1.32,1.34-2.89,1.61-3.38,1.68"/>
    <path class="cls-2" d="M267.18,82.37c-.42-.3-1.68-1.13-3.44-1.07-2.53.08-4.02,1.93-4.24,2.21"/>
    <path class="cls-2" d="M269.5,79.5c-1-1-3.38-1.66-5.46-1.02-2.19.67-3.33,2.6-3.78,3.36-.39.65-.62,1.24-.76,1.66"/>
    <g>
      <path class="cls-2" d="M269.27,75.61c.25.5.52,1.22.57,2.1.16,2.56-1.6,4.36-1.96,4.71"/>
      <path class="cls-2" d="M272.43,76.4c.06.27.52,2.73-1.21,4.64-1.28,1.42-2.95,1.63-3.38,1.68"/>
    </g>
    <path class="cls-2" d="M272.5,76.5c-.5-.35-1.57-.98-3-1-3.09-.04-4.89,2.82-5,3"/>
    <path class="cls-2" d="M275.5,74.5c-.52-.37-3.01-2.02-6.09-1.36-.71.15-2.65.57-3.91,2.36-.83,1.18-.97,2.4-1,3"/>
    <g>
      <path class="cls-2" d="M275.64,70.64c.16.54.3,1.29.21,2.16-.28,2.55-2.32,4.02-2.73,4.31"/>
      <path class="cls-2" d="M278.62,71.96c0,.27.05,2.78-1.98,4.37-1.51,1.18-3.19,1.11-3.62,1.07"/>
    </g>
    <path class="cls-2" d="M278.5,71.5c-.5-.34-1.56-.97-3-1-2.91-.07-4.7,2.35-4.88,2.6"/>
    <path class="cls-2" d="M280.5,69.37c-.32-.34-1.77-1.83-4-1.87-3.07-.05-4.81,2.68-5,3-.62,1.01-.81,1.99-.88,2.6"/>
  </g>
  <g>
    <path class="cls-2" d="M216.74,129.31c.49.29,1.1.74,1.62,1.45,1.53,2.06,1.04,4.52.93,5.01"/>
    <path class="cls-2" d="M220.83,127.96c.21.23,1.02,2.12.51,4.84-.34,1.82-1.52,2.91-1.92,3.25"/>
  </g>
  <g>
    <path class="cls-2" d="M215.97,137c.37.21,1.71,1.02,2.31,2.72.76,2.16-.27,4.01-.43,4.28"/>
    <path class="cls-2" d="M219.66,136.88c.31.49.65,1.21.73,2.11.26,2.86-2.31,4.84-2.55,5.01"/>
  </g>
  <path class="cls-2" d="M219.05,136.31c-.49-.03-2.05-.08-3.47.98-2.29,1.7-2.07,4.67-2.06,4.86"/>
  <path class="cls-2" d="M219.19,132.78c-.99-.13-3.5.32-4.89,1.99-1.52,1.82-1.39,4.01-1.33,4.88.07,1.08.34,1.94.56,2.5"/>
  <g>
    <path class="cls-2" d="M220.3,128.16c-.49-.03-2.05-.08-3.47.98-2.29,1.7-2.07,4.67-2.06,4.86"/>
    <path class="cls-2" d="M220.23,124.85c-.99-.13-3.29.1-4.69,1.77-1.52,1.82-1.39,4.01-1.33,4.88.07,1.08.34,1.94.56,2.5"/>
  </g>
  <path class="cls-2" d="M218.63,121.62c2.15,1.98,2.23,5.26,1.72,5.8"/>
  <path class="cls-2" d="M221.74,121.02c.22.37.94,1.68.66,3.43-.31,1.93-1.62,3.01-1.92,3.25"/>
  <g>
    <path class="cls-2" d="M221.32,120.34c-.49-.03-2.05-.08-3.47.98-2.29,1.7-2.07,4.67-2.06,4.86"/>
    <path class="cls-2" d="M221.39,115.93c-.52.08-3.12.52-4.83,2.88-1.47,2.02-1.37,4.19-1.33,4.88.06,1.07.33,1.93.56,2.5"/>
  </g>
  <path class="cls-2" d="M219.67,113.69c.44.3.97.77,1.38,1.47,1.31,2.23.15,4.78,0,5.1"/>
  <path class="cls-2" d="M222.94,112.95c.15.23,1.53,2.32.67,4.75-.64,1.8-2.1,2.64-2.48,2.85"/>
  <g>
    <path class="cls-2" d="M223.29,113.47c-.47-.12-2-.45-3.59.34-2.56,1.26-2.89,4.21-2.91,4.4"/>
    <path class="cls-2" d="M223.14,109.75c-.59-.03-2.56-.05-4.24,1.34-1.82,1.51-2.09,3.69-2.2,4.55-.13,1.07-.02,1.97.1,2.56"/>
  </g>
  <path class="cls-2" d="M222.69,106.01c1.72,2.24.81,6.04.61,6.5"/>
  <path class="cls-2" d="M225.79,105.41c.15.23.92,2.11.06,4.55-.64,1.8-2.1,2.64-2.48,2.85"/>
  <g>
    <path class="cls-2" d="M225.54,105.73c-.47-.12-2-.45-3.59.34-2.56,1.26-2.89,4.21-2.91,4.4"/>
    <path class="cls-2" d="M226.18,102.44c-.99-.13-3.37-.47-5.04.92-1.82,1.51-2.09,3.69-2.2,4.55-.13,1.07-.02,1.97.1,2.56"/>
  </g>
  <path class="cls-2" d="M225.58,99.33c1.72,2.24.27,5.87,0,6.29"/>
  <path class="cls-2" d="M228.68,98.75c.82,1.57.77,3.41-.15,4.8-.91,1.37-2.34,1.77-2.73,1.87"/>
  <g>
    <path class="cls-2" d="M228.94,99.32c-.44-.2-1.89-.78-3.59-.28-2.74.8-3.57,3.66-3.62,3.84"/>
    <path class="cls-2" d="M229.42,95.63c-.58-.13-2.52-.49-4.41.6-2.06,1.18-2.69,3.28-2.94,4.11-.31,1.04-.35,1.94-.34,2.54"/>
  </g>
  <path class="cls-2" d="M227.48,92.52c3.71,2.5,1.63,5.57,1.44,6.03"/>
  <path class="cls-2" d="M231.58,92.05c.15.44.63,2.08-.11,3.95-.7,1.76-2.05,2.61-2.47,2.85"/>
  <g>
    <path class="cls-2" d="M231.14,91.77c-.47-.12-2-.44-3.59.34-2.56,1.26-2.88,4.22-2.9,4.41"/>
    <path class="cls-2" d="M230.98,88.05c-.59-.03-2.56-.04-4.24,1.35-1.82,1.52-2.08,3.69-2.19,4.56-.13,1.08-.01,1.97.1,2.56"/>
  </g>
  <path class="cls-2" d="M230.5,84.85c1.59,3.23.76,6.11.56,6.57"/>
  <path class="cls-2" d="M233.48,85.24c.15.35.74,1.85.13,3.63-.64,1.87-2.15,2.69-2.47,2.85"/>
  <g>
    <path class="cls-2" d="M233.29,84.64c-.47-.12-2-.44-3.59.34-2.56,1.26-2.88,4.22-2.9,4.41"/>
    <path class="cls-2" d="M234.99,81.4c-1.85-1.25-4.43-.53-6.1.87-1.82,1.52-2.08,3.69-2.19,4.56-.13,1.08-.01,1.97.1,2.56"/>
  </g>
  <path class="cls-2" d="M234.38,78.3c.2.41.39.91.49,1.48.43,2.39-.86,4.35-1.28,4.93"/>
  <path class="cls-2" d="M237.36,78.68c.08.3.6,2.31-.66,4.2-1.09,1.63-2.75,2.05-3.12,2.13"/>
  <path class="cls-2" d="M237.47,78.72c-.43-.24-1.82-.94-3.56-.58-2.8.57-3.86,3.35-3.92,3.53"/>
  <path class="cls-2" d="M238.87,74.85c-.52-.15-2.76-.74-5.06.46-2.2,1.15-3,3.17-3.28,3.85-.4,1-.52,1.9-.55,2.5"/>
  <g>
    <path class="cls-2" d="M238.27,71.74c.31.37.61.85.79,1.43.76,2.42-1.06,4.67-1.28,4.93"/>
    <path class="cls-2" d="M241.24,72.13c.09.26,1.09,2.01-.36,4.15-1.07,1.58-2.7,2.03-3.12,2.13"/>
  </g>
  <path class="cls-2" d="M241.65,72.11c-.43-.24-1.82-.94-3.56-.58-2.8.57-3.86,3.35-3.92,3.53"/>
  <path class="cls-2" d="M244.74,68.56c-.64-.33-2.6-1.22-4.96-.65-3.46.84-4.84,4.12-5.06,4.65-.41,1.01-.52,1.92-.55,2.5"/>
  <path class="cls-2" d="M244,66.44c.33.4.66.96.76,1.67.21,1.54-.8,3.18-2.53,4.15"/>
  <path class="cls-2" d="M247.84,67.95c-.07.44-.43,2.3-2.14,3.64-1.48,1.16-3.07,1.22-3.57,1.22"/>
  <path class="cls-2" d="M247.54,67.78c-.38-.35-1.52-1.34-3.27-1.51-2.52-.24-4.24,1.39-4.49,1.64"/>
  <path class="cls-2" d="M250.21,65.24c-.86-1.12-3.14-2.08-5.28-1.72-2.26.38-3.64,2.15-4.18,2.84-.47.59-.77,1.14-.97,1.55"/>
  <g>
    <path class="cls-2" d="M250.49,61.35c.18.53.35,1.28.29,2.15-.17,2.56-2.15,4.11-2.55,4.41"/>
    <path class="cls-2" d="M253.52,62.55c.02.27.16,2.77-1.8,4.45-1.46,1.24-3.14,1.24-3.57,1.22"/>
  </g>
  <path class="cls-2" d="M253.58,62.65c-.45-.41-1.43-1.18-2.84-1.38-3.06-.44-5.21,2.16-5.35,2.33"/>
  <path class="cls-2" d="M256.81,61.06c-.47-.43-2.72-2.4-5.86-2.14-.72.06-2.7.22-4.18,1.84-.97,1.06-1.28,2.26-1.38,2.84"/>
  <g>
    <path class="cls-2" d="M257.45,57.25c.09.56.13,1.32-.08,2.17-.61,2.49-2.82,3.69-3.27,3.92"/>
    <path class="cls-2" d="M260.24,58.94c-.03.27-.31,2.76-2.53,4.07-1.65.98-3.31.68-3.73.6"/>
  </g>
  <path class="cls-2" d="M260.17,58.47c-.45-.41-1.42-1.16-2.84-1.38-2.88-.44-4.97,1.72-5.18,1.95"/>
  <path class="cls-2" d="M264.5,56.5c-.49-.45-2.63-2.34-5.79-2.25-.66.02-3.51.09-5.35,2.33-.74.9-1.06,1.85-1.21,2.47"/>
  <g>
    <g>
      <path class="cls-2" d="M232.54,130.23c.49.29,1.1.74,1.62,1.45,1.53,2.06,1.04,4.52.93,5.01"/>
      <path class="cls-2" d="M236.62,128.88c.21.23,1.02,2.12.51,4.84-.34,1.82-1.52,2.91-1.92,3.25"/>
    </g>
    <g>
      <path class="cls-2" d="M231.77,137.93c.37.21,1.71,1.02,2.31,2.72.76,2.16-.27,4.01-.43,4.28"/>
      <path class="cls-2" d="M235.46,137.8c.31.49.65,1.21.73,2.11.26,2.86-2.31,4.84-2.55,5.01"/>
    </g>
    <path class="cls-2" d="M234.85,137.23c-.49-.03-2.05-.08-3.47.98-2.29,1.7-2.07,4.67-2.06,4.86"/>
    <path class="cls-2" d="M234.99,133.71c-.99-.13-3.5.32-4.89,1.99-1.52,1.82-1.39,4.01-1.33,4.88.07,1.08.34,1.94.56,2.5"/>
    <g>
      <path class="cls-2" d="M236.09,129.08c-.49-.03-2.05-.08-3.47.98-2.29,1.7-2.07,4.67-2.06,4.86"/>
      <path class="cls-2" d="M236.02,125.77c-.99-.13-3.29.1-4.69,1.77-1.52,1.82-1.39,4.01-1.33,4.88.07,1.08.34,1.94.56,2.5"/>
    </g>
    <path class="cls-2" d="M234.43,122.54c2.15,1.98,2.23,5.26,1.72,5.8"/>
    <path class="cls-2" d="M237.53,121.94c.22.37.94,1.68.66,3.43-.31,1.93-1.62,3.01-1.92,3.25"/>
    <g>
      <path class="cls-2" d="M237.12,121.27c-.49-.03-2.05-.08-3.47.98-2.29,1.7-2.07,4.67-2.06,4.86"/>
      <path class="cls-2" d="M237.19,116.85c-.52.08-3.12.52-4.83,2.88-1.47,2.02-1.37,4.19-1.33,4.88.06,1.07.33,1.93.56,2.5"/>
    </g>
    <path class="cls-2" d="M235.47,114.61c.44.3.97.77,1.38,1.47,1.31,2.23.15,4.78,0,5.1"/>
    <path class="cls-2" d="M238.73,113.87c.15.23,1.53,2.32.67,4.75-.64,1.8-2.1,2.64-2.48,2.85"/>
    <g>
      <path class="cls-2" d="M239.09,114.39c-.47-.12-2-.45-3.59.34-2.56,1.26-2.89,4.21-2.91,4.4"/>
      <path class="cls-2" d="M238.93,110.68c-.59-.03-2.56-.05-4.24,1.34-1.82,1.51-2.09,3.69-2.2,4.55-.13,1.07-.02,1.97.1,2.56"/>
    </g>
    <path class="cls-2" d="M238.49,106.94c1.72,2.24.81,6.04.61,6.5"/>
    <path class="cls-2" d="M241.59,106.33c.15.23.92,2.11.06,4.55-.64,1.8-2.1,2.64-2.48,2.85"/>
    <g>
      <path class="cls-2" d="M241.34,106.65c-.47-.12-2-.45-3.59.34-2.56,1.26-2.89,4.21-2.91,4.4"/>
      <path class="cls-2" d="M241.98,103.36c-.99-.13-3.37-.47-5.04.92-1.82,1.51-2.09,3.69-2.2,4.55-.13,1.07-.02,1.97.1,2.56"/>
    </g>
    <path class="cls-2" d="M241.38,100.25c1.72,2.24.27,5.87,0,6.29"/>
    <path class="cls-2" d="M244.48,99.67c.82,1.57.77,3.41-.15,4.8-.91,1.37-2.34,1.77-2.73,1.87"/>
    <g>
      <path class="cls-2" d="M244.74,100.24c-.44-.2-1.89-.78-3.59-.28-2.74.8-3.57,3.66-3.62,3.84"/>
      <path class="cls-2" d="M245.22,96.55c-.58-.13-2.52-.49-4.41.6-2.06,1.18-2.69,3.28-2.94,4.11-.31,1.04-.35,1.94-.34,2.54"/>
    </g>
    <path class="cls-2" d="M243.28,93.44c3.71,2.5,1.63,5.57,1.44,6.03"/>
    <path class="cls-2" d="M247.37,92.97c.15.44.63,2.08-.11,3.95-.7,1.76-2.05,2.61-2.47,2.85"/>
    <g>
      <path class="cls-2" d="M246.94,92.69c-.47-.12-2-.44-3.59.34-2.56,1.26-2.88,4.22-2.9,4.41"/>
      <path class="cls-2" d="M246.78,88.97c-.59-.03-2.56-.04-4.24,1.35-1.82,1.52-2.08,3.69-2.19,4.56-.13,1.08-.01,1.97.1,2.56"/>
    </g>
    <path class="cls-2" d="M246.3,85.77c1.59,3.23.76,6.11.56,6.57"/>
    <path class="cls-2" d="M249.27,86.16c.15.35.74,1.85.13,3.63-.64,1.87-2.15,2.69-2.47,2.85"/>
    <g>
      <path class="cls-2" d="M249.09,85.56c-.47-.12-2-.44-3.59.34-2.56,1.26-2.88,4.22-2.9,4.41"/>
      <path class="cls-2" d="M250.78,82.32c-1.85-1.25-4.43-.53-6.1.87-1.82,1.52-2.08,3.69-2.19,4.56-.13,1.08-.01,1.97.1,2.56"/>
    </g>
    <path class="cls-2" d="M250.18,79.22c.2.41.39.91.49,1.48.43,2.39-.86,4.35-1.28,4.93"/>
    <path class="cls-2" d="M253.16,79.61c.08.3.6,2.31-.66,4.2-1.09,1.63-2.75,2.05-3.12,2.13"/>
    <path class="cls-2" d="M253.26,79.64c-.43-.24-1.82-.94-3.56-.58-2.8.57-3.86,3.35-3.92,3.53"/>
    <path class="cls-2" d="M254.67,75.77c-.52-.15-2.76-.74-5.06.46-2.2,1.15-3,3.17-3.28,3.85-.4,1-.52,1.9-.55,2.5"/>
    <g>
      <path class="cls-2" d="M254.06,72.67c.31.37.61.85.79,1.43.76,2.42-1.06,4.67-1.28,4.93"/>
      <path class="cls-2" d="M257.04,73.06c.09.26,1.09,2.01-.36,4.15-1.07,1.58-2.7,2.03-3.12,2.13"/>
    </g>
    <path class="cls-2" d="M257.45,73.04c-.43-.24-1.82-.94-3.56-.58-2.8.57-3.86,3.35-3.92,3.53"/>
    <path class="cls-2" d="M260.53,69.48c-.64-.33-2.6-1.22-4.96-.65-3.46.84-4.84,4.12-5.06,4.65-.41,1.01-.52,1.92-.55,2.5"/>
    <path class="cls-2" d="M259.8,67.37c.33.4.66.96.76,1.67.21,1.54-.8,3.18-2.53,4.15"/>
    <path class="cls-2" d="M263.64,68.88c-.07.44-.43,2.3-2.14,3.64-1.48,1.16-3.07,1.22-3.57,1.22"/>
    <path class="cls-2" d="M263.34,68.7c-.38-.35-1.52-1.34-3.27-1.51-2.52-.24-4.24,1.39-4.49,1.64"/>
    <path class="cls-2" d="M266.01,66.16c-.86-1.12-3.14-2.08-5.28-1.72-2.26.38-3.64,2.15-4.18,2.84-.47.59-.77,1.14-.97,1.55"/>
    <g>
      <path class="cls-2" d="M266.29,62.28c.18.53.35,1.28.29,2.15-.17,2.56-2.15,4.11-2.55,4.41"/>
      <path class="cls-2" d="M269.32,63.47c.02.27.16,2.77-1.8,4.45-1.46,1.24-3.14,1.24-3.57,1.22"/>
    </g>
    <path class="cls-2" d="M269.37,63.58c-.45-.41-1.43-1.18-2.84-1.38-3.06-.44-5.21,2.16-5.35,2.33"/>
    <path class="cls-2" d="M272.61,61.98c-.47-.43-2.72-2.4-5.86-2.14-.72.06-2.7.22-4.18,1.84-.97,1.06-1.28,2.26-1.38,2.84"/>
    <g>
      <path class="cls-2" d="M273.25,58.18c.09.56.13,1.32-.08,2.17-.61,2.49-2.82,3.69-3.27,3.92"/>
      <path class="cls-2" d="M276.03,59.87c-.03.27-.31,2.76-2.53,4.07-1.65.98-3.31.68-3.73.6"/>
    </g>
    <path class="cls-2" d="M275.97,59.4c-.45-.41-1.42-1.16-2.84-1.38-2.88-.44-4.97,1.72-5.18,1.95"/>
    <path class="cls-2" d="M278.23,57.54c-.27-.38-1.52-2.04-3.73-2.37-3.03-.45-5.11,2.04-5.35,2.33-.75.92-1.07,1.87-1.21,2.47"/>
  </g>
  <g>
    <g>
      <path class="cls-2" d="M342.53,131.82c-.49.29-1.1.74-1.62,1.45-1.53,2.06-1.04,4.52-.93,5.01"/>
      <path class="cls-2" d="M338.45,130.47c-.21.23-1.02,2.12-.51,4.84.34,1.82,1.52,2.91,1.92,3.25"/>
    </g>
    <g>
      <path class="cls-2" d="M343.31,139.51c-.37.21-1.71,1.02-2.31,2.72-.76,2.16.27,4.01.43,4.28"/>
      <path class="cls-2" d="M339.61,139.39c-.31.49-.65,1.21-.73,2.11-.26,2.86,2.31,4.84,2.55,5.01"/>
    </g>
    <path class="cls-2" d="M340.22,138.82c.49-.03,2.05-.08,3.47.98,2.29,1.7,2.07,4.67,2.06,4.86"/>
    <path class="cls-2" d="M340.09,135.3c.99-.13,3.5.32,4.89,1.99,1.52,1.82,1.39,4.01,1.33,4.88-.07,1.08-.34,1.94-.56,2.5"/>
    <g>
      <path class="cls-2" d="M338.98,130.67c.49-.03,2.05-.08,3.47.98,2.29,1.7,2.07,4.67,2.06,4.86"/>
      <path class="cls-2" d="M339.05,127.36c.99-.13,3.29.1,4.69,1.77,1.52,1.82,1.39,4.01,1.33,4.88-.07,1.08-.34,1.94-.56,2.5"/>
    </g>
    <path class="cls-2" d="M340.64,124.13c-2.15,1.98-2.23,5.26-1.72,5.8"/>
    <path class="cls-2" d="M337.54,123.53c-.22.37-.94,1.68-.66,3.43.31,1.93,1.62,3.01,1.92,3.25"/>
    <g>
      <path class="cls-2" d="M337.96,122.85c.49-.03,2.05-.08,3.47.98,2.29,1.7,2.07,4.67,2.06,4.86"/>
      <path class="cls-2" d="M337.88,118.44c.52.08,3.12.52,4.83,2.88,1.47,2.02,1.37,4.19,1.33,4.88-.06,1.07-.33,1.93-.56,2.5"/>
    </g>
    <path class="cls-2" d="M339.61,116.2c-.44.3-.97.77-1.38,1.47-1.31,2.23-.15,4.78,0,5.1"/>
    <path class="cls-2" d="M336.34,115.46c-.15.23-1.53,2.32-.67,4.75.64,1.8,2.1,2.64,2.48,2.85"/>
    <g>
      <path class="cls-2" d="M335.98,115.98c.47-.12,2-.45,3.59.34,2.56,1.26,2.89,4.21,2.91,4.4"/>
      <path class="cls-2" d="M336.14,112.26c.59-.03,2.56-.05,4.24,1.34,1.82,1.51,2.09,3.69,2.2,4.55.13,1.07.02,1.97-.1,2.56"/>
    </g>
    <path class="cls-2" d="M336.58,108.52c-1.72,2.24-.81,6.04-.61,6.5"/>
    <path class="cls-2" d="M333.48,107.92c-.15.23-.92,2.11-.06,4.55.64,1.8,2.1,2.64,2.48,2.85"/>
    <g>
      <path class="cls-2" d="M333.74,108.24c.47-.12,2-.45,3.59.34,2.56,1.26,2.89,4.21,2.91,4.4"/>
      <path class="cls-2" d="M333.09,104.95c.99-.13,3.37-.47,5.04.92,1.82,1.51,2.09,3.69,2.2,4.55.13,1.07.02,1.97-.1,2.56"/>
    </g>
    <path class="cls-2" d="M333.69,101.84c-1.72,2.24-.27,5.87,0,6.29"/>
    <path class="cls-2" d="M330.59,101.26c-.82,1.57-.77,3.41.15,4.8.91,1.37,2.34,1.77,2.73,1.87"/>
    <g>
      <path class="cls-2" d="M330.33,101.83c.44-.2,1.89-.78,3.59-.28,2.74.8,3.57,3.66,3.62,3.84"/>
      <path class="cls-2" d="M329.85,98.14c.58-.13,2.52-.49,4.41.6,2.06,1.18,2.69,3.28,2.94,4.11.31,1.04.35,1.94.34,2.54"/>
    </g>
    <path class="cls-2" d="M331.79,95.03c-3.71,2.5-1.63,5.57-1.44,6.03"/>
    <path class="cls-2" d="M327.7,94.56c-.15.44-.63,2.08.11,3.95.7,1.76,2.05,2.61,2.47,2.85"/>
    <g>
      <path class="cls-2" d="M328.13,94.28c.47-.12,2-.44,3.59.34,2.56,1.26,2.88,4.22,2.9,4.41"/>
      <path class="cls-2" d="M328.3,90.56c.59-.03,2.56-.04,4.24,1.35,1.82,1.52,2.08,3.69,2.19,4.56.13,1.08.01,1.97-.1,2.56"/>
    </g>
    <path class="cls-2" d="M328.77,87.36c-1.59,3.23-.76,6.11-.56,6.57"/>
    <path class="cls-2" d="M325.8,87.75c-.15.35-.74,1.85-.13,3.63.64,1.87,2.15,2.69,2.47,2.85"/>
    <g>
      <path class="cls-2" d="M325.99,87.15c.47-.12,2-.44,3.59.34,2.56,1.26,2.88,4.22,2.9,4.41"/>
      <path class="cls-2" d="M324.29,83.91c1.85-1.25,4.43-.53,6.1.87,1.82,1.52,2.08,3.69,2.19,4.56.13,1.08.01,1.97-.1,2.56"/>
    </g>
    <path class="cls-2" d="M324.89,80.81c-.2.41-.39.91-.49,1.48-.43,2.39.86,4.35,1.28,4.93"/>
    <path class="cls-2" d="M321.92,81.2c-.08.3-.6,2.31.66,4.2,1.09,1.63,2.75,2.05,3.12,2.13"/>
    <path class="cls-2" d="M321.81,81.23c.43-.24,1.82-.94,3.56-.58,2.8.57,3.86,3.35,3.92,3.53"/>
    <path class="cls-2" d="M320.4,77.36c.52-.15,2.76-.74,5.06.46,2.2,1.15,3,3.17,3.28,3.85.4,1,.52,1.9.55,2.5"/>
    <g>
      <path class="cls-2" d="M321.01,74.25c-.31.37-.61.85-.79,1.43-.76,2.42,1.06,4.67,1.28,4.93"/>
      <path class="cls-2" d="M318.03,74.64c-.09.26-1.09,2.01.36,4.15,1.07,1.58,2.7,2.03,3.12,2.13"/>
    </g>
    <path class="cls-2" d="M317.62,74.62c.43-.24,1.82-.94,3.56-.58,2.8.57,3.86,3.35,3.92,3.53"/>
    <path class="cls-2" d="M314.54,71.07c.64-.33,2.6-1.22,4.96-.65,3.46.84,4.84,4.12,5.06,4.65.41,1.01.52,1.92.55,2.5"/>
    <path class="cls-2" d="M315.27,68.95c-.33.4-.66.96-.76,1.67-.21,1.54.8,3.18,2.53,4.15"/>
    <path class="cls-2" d="M311.43,70.46c.07.44.43,2.3,2.14,3.64,1.48,1.16,3.07,1.22,3.57,1.22"/>
    <path class="cls-2" d="M311.73,70.29c.38-.35,1.52-1.34,3.27-1.51,2.52-.24,4.24,1.39,4.49,1.64"/>
    <path class="cls-2" d="M309.06,67.75c.86-1.12,3.14-2.08,5.28-1.72,2.26.38,3.64,2.15,4.18,2.84.47.59.77,1.14.97,1.55"/>
    <g>
      <path class="cls-2" d="M308.79,63.87c-.18.53-.35,1.28-.29,2.15.17,2.56,2.15,4.11,2.55,4.41"/>
      <path class="cls-2" d="M305.76,65.06c-.02.27-.16,2.77,1.8,4.45,1.46,1.24,3.14,1.24,3.57,1.22"/>
    </g>
    <path class="cls-2" d="M305.7,65.16c.45-.41,1.43-1.18,2.84-1.38,3.06-.44,5.21,2.16,5.35,2.33"/>
    <path class="cls-2" d="M302.46,63.57c.47-.43,2.72-2.4,5.86-2.14.72.06,2.7.22,4.18,1.84.97,1.06,1.28,2.26,1.38,2.84"/>
    <g>
      <path class="cls-2" d="M301.82,59.76c-.09.56-.13,1.32.08,2.17.61,2.49,2.82,3.69,3.27,3.92"/>
      <path class="cls-2" d="M299.04,61.45c.03.27.31,2.76,2.53,4.07,1.65.98,3.31.68,3.73.6"/>
    </g>
    <path class="cls-2" d="M299.1,60.98c.45-.41,1.42-1.16,2.84-1.38,2.88-.44,4.97,1.72,5.18,1.95"/>
    <path class="cls-2" d="M296.84,59.13c.27-.38,1.52-2.04,3.73-2.37,3.03-.45,5.11,2.04,5.35,2.33.75.92,1.07,1.87,1.21,2.47"/>
  </g>
  <g>
    <g>
      <path class="cls-2" d="M327.53,132.82c-.49.29-1.1.74-1.62,1.45-1.53,2.06-1.04,4.52-.93,5.01"/>
      <path class="cls-2" d="M323.45,131.47c-.21.23-1.02,2.12-.51,4.84.34,1.82,1.52,2.91,1.92,3.25"/>
    </g>
    <g>
      <path class="cls-2" d="M328.31,140.51c-.37.21-1.71,1.02-2.31,2.72-.76,2.16.27,4.01.43,4.28"/>
      <path class="cls-2" d="M324.61,140.39c-.31.49-.65,1.21-.73,2.11-.26,2.86,2.31,4.84,2.55,5.01"/>
    </g>
    <path class="cls-2" d="M325.22,139.82c.49-.03,2.05-.08,3.47.98,2.29,1.7,2.07,4.67,2.06,4.86"/>
    <path class="cls-2" d="M325.09,136.3c.99-.13,3.5.32,4.89,1.99,1.52,1.82,1.39,4.01,1.33,4.88-.07,1.08-.34,1.94-.56,2.5"/>
    <g>
      <path class="cls-2" d="M323.98,131.67c.49-.03,2.05-.08,3.47.98,2.29,1.7,2.07,4.67,2.06,4.86"/>
      <path class="cls-2" d="M324.05,128.36c.99-.13,3.29.1,4.69,1.77,1.52,1.82,1.39,4.01,1.33,4.88-.07,1.08-.34,1.94-.56,2.5"/>
    </g>
    <path class="cls-2" d="M325.64,125.13c-2.15,1.98-2.23,5.26-1.72,5.8"/>
    <path class="cls-2" d="M322.54,124.53c-.22.37-.94,1.68-.66,3.43.31,1.93,1.62,3.01,1.92,3.25"/>
    <g>
      <path class="cls-2" d="M322.96,123.85c.49-.03,2.05-.08,3.47.98,2.29,1.7,2.07,4.67,2.06,4.86"/>
      <path class="cls-2" d="M322.88,119.44c.52.08,3.12.52,4.83,2.88,1.47,2.02,1.37,4.19,1.33,4.88-.06,1.07-.33,1.93-.56,2.5"/>
    </g>
    <path class="cls-2" d="M324.61,117.2c-.44.3-.97.77-1.38,1.47-1.31,2.23-.15,4.78,0,5.1"/>
    <path class="cls-2" d="M321.34,116.46c-.15.23-1.53,2.32-.67,4.75.64,1.8,2.1,2.64,2.48,2.85"/>
    <g>
      <path class="cls-2" d="M320.98,116.98c.47-.12,2-.45,3.59.34,2.56,1.26,2.89,4.21,2.91,4.4"/>
      <path class="cls-2" d="M321.14,113.26c.59-.03,2.56-.05,4.24,1.34,1.82,1.51,2.09,3.69,2.2,4.55.13,1.07.02,1.97-.1,2.56"/>
    </g>
    <path class="cls-2" d="M321.58,109.52c-1.72,2.24-.81,6.04-.61,6.5"/>
    <path class="cls-2" d="M318.48,108.92c-.15.23-.92,2.11-.06,4.55.64,1.8,2.1,2.64,2.48,2.85"/>
    <g>
      <path class="cls-2" d="M318.74,109.24c.47-.12,2-.45,3.59.34,2.56,1.26,2.89,4.21,2.91,4.4"/>
      <path class="cls-2" d="M318.09,105.95c.99-.13,3.37-.47,5.04.92,1.82,1.51,2.09,3.69,2.2,4.55.13,1.07.02,1.97-.1,2.56"/>
    </g>
    <path class="cls-2" d="M318.69,102.84c-1.72,2.24-.27,5.87,0,6.29"/>
    <path class="cls-2" d="M315.59,102.26c-.82,1.57-.77,3.41.15,4.8.91,1.37,2.34,1.77,2.73,1.87"/>
    <g>
      <path class="cls-2" d="M315.33,102.83c.44-.2,1.89-.78,3.59-.28,2.74.8,3.57,3.66,3.62,3.84"/>
      <path class="cls-2" d="M314.85,99.14c.58-.13,2.52-.49,4.41.6,2.06,1.18,2.69,3.28,2.94,4.11.31,1.04.35,1.94.34,2.54"/>
    </g>
    <path class="cls-2" d="M316.79,96.03c-3.71,2.5-1.63,5.57-1.44,6.03"/>
    <path class="cls-2" d="M312.7,95.56c-.15.44-.63,2.08.11,3.95.7,1.76,2.05,2.61,2.47,2.85"/>
    <g>
      <path class="cls-2" d="M313.13,95.28c.47-.12,2-.44,3.59.34,2.56,1.26,2.88,4.22,2.9,4.41"/>
      <path class="cls-2" d="M313.3,91.56c.59-.03,2.56-.04,4.24,1.35,1.82,1.52,2.08,3.69,2.19,4.56.13,1.08.01,1.97-.1,2.56"/>
    </g>
    <path class="cls-2" d="M313.77,88.36c-1.59,3.23-.76,6.11-.56,6.57"/>
    <path class="cls-2" d="M310.8,88.75c-.15.35-.74,1.85-.13,3.63.64,1.87,2.15,2.69,2.47,2.85"/>
    <g>
      <path class="cls-2" d="M310.99,88.15c.47-.12,2-.44,3.59.34,2.56,1.26,2.88,4.22,2.9,4.41"/>
      <path class="cls-2" d="M309.29,84.91c1.85-1.25,4.43-.53,6.1.87,1.82,1.52,2.08,3.69,2.19,4.56.13,1.08.01,1.97-.1,2.56"/>
    </g>
    <path class="cls-2" d="M309.89,81.81c-.2.41-.39.91-.49,1.48-.43,2.39.86,4.35,1.28,4.93"/>
    <path class="cls-2" d="M306.92,82.2c-.08.3-.6,2.31.66,4.2,1.09,1.63,2.75,2.05,3.12,2.13"/>
    <path class="cls-2" d="M306.81,82.23c.43-.24,1.82-.94,3.56-.58,2.8.57,3.86,3.35,3.92,3.53"/>
    <path class="cls-2" d="M305.4,78.36c.52-.15,2.76-.74,5.06.46,2.2,1.15,3,3.17,3.28,3.85.4,1,.52,1.9.55,2.5"/>
    <g>
      <path class="cls-2" d="M306.01,75.25c-.31.37-.61.85-.79,1.43-.76,2.42,1.06,4.67,1.28,4.93"/>
      <path class="cls-2" d="M303.03,75.64c-.09.26-1.09,2.01.36,4.15,1.07,1.58,2.7,2.03,3.12,2.13"/>
    </g>
    <path class="cls-2" d="M302.62,75.62c.43-.24,1.82-.94,3.56-.58,2.8.57,3.86,3.35,3.92,3.53"/>
    <path class="cls-2" d="M299.54,72.07c.64-.33,2.6-1.22,4.96-.65,3.46.84,4.84,4.12,5.06,4.65.41,1.01.52,1.92.55,2.5"/>
    <path class="cls-2" d="M300.27,69.95c-.33.4-.66.96-.76,1.67-.21,1.54.8,3.18,2.53,4.15"/>
    <path class="cls-2" d="M296.43,71.46c.07.44.43,2.3,2.14,3.64,1.48,1.16,3.07,1.22,3.57,1.22"/>
    <path class="cls-2" d="M296.73,71.29c.38-.35,1.52-1.34,3.27-1.51,2.52-.24,4.24,1.39,4.49,1.64"/>
    <path class="cls-2" d="M294.06,68.75c.86-1.12,3.14-2.08,5.28-1.72,2.26.38,3.64,2.15,4.18,2.84.47.59.77,1.14.97,1.55"/>
    <g>
      <path class="cls-2" d="M293.79,64.87c-.18.53-.35,1.28-.29,2.15.17,2.56,2.15,4.11,2.55,4.41"/>
      <path class="cls-2" d="M290.76,66.06c-.02.27-.16,2.77,1.8,4.45,1.46,1.24,3.14,1.24,3.57,1.22"/>
    </g>
    <path class="cls-2" d="M290.7,66.16c.45-.41,1.43-1.18,2.84-1.38,3.06-.44,5.21,2.16,5.35,2.33"/>
    <path class="cls-2" d="M287.46,64.57c.47-.43,2.72-2.4,5.86-2.14.72.06,2.7.22,4.18,1.84.97,1.06,1.28,2.26,1.38,2.84"/>
    <g>
      <path class="cls-2" d="M286.82,60.76c-.09.56-.13,1.32.08,2.17.61,2.49,2.82,3.69,3.27,3.92"/>
      <path class="cls-2" d="M284.04,62.45c.03.27.31,2.76,2.53,4.07,1.65.98,3.31.68,3.73.6"/>
    </g>
    <path class="cls-2" d="M284.1,61.98c.45-.41,1.42-1.16,2.84-1.38,2.88-.44,4.97,1.72,5.18,1.95"/>
    <path class="cls-2" d="M281.84,60.13c.27-.38,1.52-2.04,3.73-2.37,3.03-.45,5.11,2.04,5.35,2.33.75.92,1.07,1.87,1.21,2.47"/>
  </g>
  <g>
    <path class="cls-2" d="M308.75,145.85c-.41.06-1.96.34-3.13,1.72-1.48,1.75-1.17,3.85-1.12,4.16"/>
    <path class="cls-2" d="M305.34,144.43c-.46.35-1.04.9-1.44,1.71-1.26,2.58.44,5.34.6,5.59"/>
  </g>
  <path class="cls-2" d="M306.11,144.11c.47.14,1.94.66,2.89,2.15,1.54,2.41.28,5.1.2,5.27"/>
  <path class="cls-2" d="M307.24,140.77c.97.23,3.16,1.54,3.87,3.6.77,2.24-.13,4.24-.49,5.03-.45.99-1.01,1.7-1.42,2.14"/>
  <g>
    <path class="cls-2" d="M265.64,53.87c-.08.56-.26,1.3-.7,2.06-1.3,2.21-3.77,2.71-4.26,2.8"/>
    <path class="cls-2" d="M267.81,56.3c-.1.25-1.1,2.55-3.61,3.17-1.86.46-3.36-.3-3.74-.51"/>
  </g>
  <path class="cls-2" d="M267.89,55.83c-.31-.52-1.03-1.52-2.32-2.15-2.63-1.26-5.26.21-5.52.37"/>
  <path class="cls-2" d="M270.59,54.71c-.15-.44-.86-2.4-2.88-3.35-2.77-1.31-5.48.47-5.79.68-.98.67-1.56,1.48-1.88,2.01"/>
  <g>
    <path class="cls-2" d="M294.88,55.23c0,.56.06,1.32.4,2.14.97,2.37,3.33,3.23,3.81,3.39"/>
    <path class="cls-2" d="M292.38,57.31c.07.27.71,2.68,3.11,3.66,1.77.72,3.37.19,3.77.04"/>
  </g>
  <path class="cls-2" d="M292.37,56.84c.39-.47,1.24-1.36,2.61-1.78,2.78-.86,5.17.97,5.41,1.17"/>
  <path class="cls-2" d="M289.86,55.34c.21-.41,1.2-2.25,3.34-2.89,2.93-.89,5.36,1.26,5.63,1.51.87.8,1.33,1.69,1.56,2.26"/>
  <g>
    <path class="cls-2" d="M310.14,138.39c-.41.06-1.96.34-3.13,1.72-1.48,1.75-1.17,3.85-1.12,4.16"/>
    <path class="cls-2" d="M306.74,136.97c-.46.35-1.04.9-1.44,1.71-1.26,2.58.44,5.34.6,5.59"/>
  </g>
  <path class="cls-2" d="M307.51,136.65c.36.1,1.95.57,2.89,2.15,1.31,2.2.18,4.54.1,4.7"/>
  <path class="cls-2" d="M308.5,132.5c.45.2,3.15,1.46,4,4.4.13.45.52,1.88,0,3.6-.5,1.66-1.57,2.64-2,3"/>
  <g>
    <path class="cls-2" d="M311.09,130.26c-.41.1-1.91.54-2.94,2.03-1.3,1.89-.77,3.95-.69,4.25"/>
    <path class="cls-2" d="M307.56,129.19c-.43.4-.94,1-1.25,1.85-1,2.69.98,5.27,1.16,5.5"/>
  </g>
  <path class="cls-2" d="M308.29,128.79c.48.09,2,.46,3.1,1.85,1.77,2.24.8,5.05.73,5.23"/>
  <path class="cls-2" d="M307.5,124.5c.42.05,3.26.42,5,3,1.81,2.68.98,5.57.81,6.1-.32,1.04-.83,1.8-1.19,2.27"/>
  <g>
    <path class="cls-2" d="M310.11,122.38c-.38.17-1.79.87-2.53,2.52-.94,2.09-.06,4.02.07,4.3"/>
    <path class="cls-2" d="M306.44,121.94c-.35.47-.75,1.15-.91,2.04-.5,2.83,1.89,5.02,2.11,5.21"/>
  </g>
  <path class="cls-2" d="M307.1,121.42c.55.02,2.04.16,3.37,1.27,2.13,1.77,2.05,4.48,2.03,4.81"/>
  <path class="cls-2" d="M305.5,117.5c.69-.12,3.07-.45,5,1,2.63,1.98,2.44,5.75,2.38,6.77-.05.93-.23,1.7-.38,2.23"/>
  <g>
    <path class="cls-2" d="M307.44,114.43c-.35.23-1.63,1.14-2.1,2.89-.6,2.21.57,3.98.75,4.24"/>
    <path class="cls-2" d="M303.75,114.59c-.27.52-.56,1.26-.57,2.16-.05,2.87,2.66,4.65,2.91,4.81"/>
  </g>
  <path class="cls-2" d="M304.32,113.97c.51-.06,2.01-.18,3.53.72,2.11,1.24,2.58,3.45,2.65,3.81"/>
  <path class="cls-2" d="M303.92,110.47c.98-.2,3.51.05,5.03,1.62,1.61,1.66,1.67,3.89,1.69,4.76.01.68-.06,1.25-.14,1.65"/>
  <g>
    <path class="cls-2" d="M305.46,107.44c-.35.23-1.64,1.12-2.14,2.86-.63,2.2.52,3.99.69,4.25"/>
    <path class="cls-2" d="M301.77,107.54c-.28.51-.57,1.25-.6,2.15-.09,2.87,2.6,4.69,2.84,4.85"/>
  </g>
  <path class="cls-2" d="M301.5,107.5c.27-.11,2.29-.91,4.36.21,2.23,1.19,2.6,3.55,2.64,3.79"/>
  <path class="cls-2" d="M301.5,103.5c.32-.05,3.48-.51,5.5,1.62,1.56,1.64,1.61,3.95,1.62,4.79.01.66-.06,1.21-.12,1.6"/>
  <g>
    <path class="cls-2" d="M303.64,100.56c-.38.17-1.79.87-2.53,2.52-.94,2.09-.06,4.02.07,4.3"/>
    <path class="cls-2" d="M299.97,100.12c-.35.47-.75,1.15-.91,2.04-.5,2.83,1.89,5.02,2.11,5.21"/>
  </g>
  <path class="cls-2" d="M300.62,99.61c.39,0,2,.03,3.37,1.27,1.09.99,1.41,2.19,1.5,2.62"/>
  <path class="cls-2" d="M299.5,95.5c.47-.01,3.52-.06,5,2,.69.96.87,2.14,1,3,.19,1.25.11,2.3,0,3"/>
  <g>
    <path class="cls-2" d="M301.37,92.4c-.34.25-1.56,1.23-1.93,3-.47,2.24.8,3.94.99,4.19"/>
    <path class="cls-2" d="M297.69,92.76c-.24.53-.48,1.29-.45,2.19.12,2.87,2.93,4.49,3.19,4.63"/>
  </g>
  <path class="cls-2" d="M298.22,92.12c.48-.1,2.02-.35,3.57.51,2.5,1.39,2.67,4.35,2.68,4.54"/>
  <path class="cls-2" d="M296.5,88.5c.29-.07,3.81-.85,6.23,1.46,1.74,1.67,1.92,4,1.97,4.66.08,1.07-.08,1.96-.23,2.55"/>
  <g>
    <path class="cls-2" d="M298.2,85.33c-.3.29-1.4,1.41-1.55,3.21-.2,2.28,1.27,3.81,1.49,4.04"/>
    <path class="cls-2" d="M294.6,86.14c-.18.56-.32,1.34-.18,2.23.46,2.83,3.45,4.1,3.72,4.21"/>
  </g>
  <path class="cls-2" d="M295.04,85.44c.38-.13,1.9-.62,3.6.08,2.03.83,2.74,2.68,2.85,2.98"/>
  <path class="cls-2" d="M292.5,81.5c.23-.12,3.14-1.59,6,0,2.29,1.27,2.9,3.6,3,4,.32,1.3.14,2.4,0,3"/>
  <g>
    <path class="cls-2" d="M294.18,78.33c-.3.3-1.37,1.44-1.5,3.24-.16,2.29,1.33,3.79,1.56,4.01"/>
    <path class="cls-2" d="M290.59,79.19c-.17.56-.3,1.34-.14,2.23.51,2.83,3.52,4.05,3.79,4.15"/>
  </g>
  <path class="cls-2" d="M291.02,78.48c.65-.17,1.95-.4,3.48.02,2.43.67,3.68,2.5,4,3"/>
  <path class="cls-2" d="M289.95,75.12c.71-.16,2.96-.59,5.25.61.65.34,2.8,1.47,3.3,3.77.18.82.1,1.53,0,2"/>
  <g>
    <path class="cls-2" d="M291.33,71.38c-.33.26-1.52,1.28-1.84,3.06-.41,2.26.92,3.92,1.11,4.16"/>
    <path class="cls-2" d="M287.66,71.85c-.23.54-.45,1.3-.38,2.2.2,2.86,3.06,4.4,3.32,4.54"/>
  </g>
  <g>
    <path class="cls-2" d="M288.16,52.32c0,.56.06,1.32.4,2.14.97,2.37,3.33,3.23,3.81,3.39"/>
    <path class="cls-2" d="M285.65,54.4c.07.27.71,2.68,3.11,3.66,1.77.72,3.37.19,3.77.04"/>
  </g>
  <path class="cls-2" d="M284.81,54.38c.27-.54.91-1.59,2.16-2.31,2.53-1.45,5.26-.17,5.53-.04"/>
  <path class="cls-2" d="M282.04,53.46c.12-.45.68-2.45,2.63-3.55,2.67-1.51,5.5.07,5.83.25,1.03.59,1.67,1.36,2.02,1.87"/>
  <path class="cls-3" d="M279,48c-4.97-.59-10.83,1.02-11,3-.19,2.19,6.81,1.81,10,7,3.85,6.27-.94,15.63,2,17,.65.3.87-.16,3,0,3.15.23,3.94,1.33,5,1,2.86-.9,2.13-10.51,2-12-.49-5.83-.93-11.06-5-14-2.13-1.54-4.37-1.81-6-2Z"/>
  <path class="cls-4" d="M275.33,43.81c1.63-2.48-1.85-11.38-8.48-11.84-4.49-.31-9.1,3.34-8.87,6.12.4,4.75,15.11,9.13,17.35,5.72Z"/>
  <path class="cls-4" d="M276.65,43.86c-1.63-2.48,1.85-11.38,8.48-11.84,4.49-.31,9.1,3.34,8.87,6.12-.4,4.75-15.11,9.13-17.35,5.72Z"/>
</svg>