<?xml version="1.0" encoding="UTF-8"?>
<svg id="Layer_1" data-name="Layer 1" xmlns="http://www.w3.org/2000/svg" viewBox="0 0 512 512">
  <defs>
    <style>
      .cls-1 {
        stroke-miterlimit: 10;
      }

      .cls-1, .cls-2 {
        fill: none;
        stroke: #0a0a0a;
        stroke-linecap: round;
        stroke-width: 6px;
      }

      .cls-3 {
        fill: #e2c7e0;
      }

      .cls-2 {
        stroke-linejoin: round;
      }
    </style>
  </defs>
  <circle class="cls-3" cx="366" cy="298" r="102"/>
  <g>
    <path class="cls-1" d="M236,325c-1.5-.62-3.61-1.58-6-3-9.25-5.51-14.14-12.86-17.82-18.54-2.81-4.34-7.59-11.85-10-23-1.89-8.72-1.57-16.14-1-21"/>
    <path class="cls-1" d="M254.16,131.16c1.88-3.3,9.44-15.68,25.05-20.77,22.18-7.24,40.78,6.73,42.41,8"/>
    <path class="cls-1" d="M360.1,118.5c-2.18-2.93-9.95-12.59-23.96-15.96-18.18-4.38-32.4,5.32-34.6,6.87"/>
    <path class="cls-1" d="M271.28,154.57c1.29,2.55,3.85,6.76,8.5,10.37,9.15,7.09,19.48,6.5,22.64,6.18,7.58-.78,13.06-4.07,15.84-6.06"/>
    <path class="cls-1" d="M277.77,139.08c1.62-1.38,4.28-3.23,7.88-3.92,5.91-1.13,10.95,1.54,18.13,5.48,2.04,1.12,2.54,1.51,12.89,8.39,10.47,6.96,10.91,7.19,11.96,7.53,8.74,2.85,12.29-2.31,19.69.04,6.11,1.95,9.24,7.25,14.1,15.5,1.94,3.3,7.12,12.3,8.23,24.7.37,4.12-.22,2.9-.16,17.01.06,12.23.5,12.49-.23,15.22-2.4,8.94-7.88,8.85-9.98,17.44-1.77,7.22,1.75,8.78-.23,15.22-2.37,7.72-7.77,6.65-12.78,14.87-6.21,10.21-.65,16.41-7.85,25.4-3.31,4.13-6.79,6.99-9.48,8.46"/>
    <path class="cls-1" d="M323.87,129.03c2.36-.13,6.5,0,10.83,2.21,4.42,2.25,6.84,5.54,8.39,7.69,2.13,2.97,2.36,4.45,4.89,9.63,1.23,2.53,3.13,6.18,5.82,10.49"/>
    <path class="cls-1" d="M335.28,124.06c3.15-.69,8.73-1.44,15.22.23,3.5.9,11.76,3.04,15.65,10.06,2.71,4.88,2.07,9.81,1.51,14.25-1.08,8.63-5.03,15.14-8.12,19.14"/>
    <path class="cls-1" d="M366.12,154.04c1.88-.09,6.8-.07,11.77,3.07,4.7,2.97,6.75,7.03,7.53,8.62.86,1.76,2.2,4.49,2.14,7.96-.04,2.29-.88,4.92-7.5,12.85-2.24,2.68-5.37,6.25-9.4,10.25"/>
    <path class="cls-1" d="M328.64,156.56c-.15,1.82-.19,5.15,1.28,8.89,1.92,4.91,5.28,7.6,6.64,8.66,1.2.94,2.29,1.55,3.34,1.96,4.8,1.89,7.2,1.46,12.97,2.7,2.53.54,5.6,1.23,9.09,3.18,2.71,1.52,5.94,3.34,7.46,6.84,1.72,3.96.18,7.66,1.24,8,1.18.38,2.33-4.48,6.02-5.63,3.61-1.13,7.51,1.95,9.09,3.18,5.81,4.58,6.7,11.43,6.79,12.23.81,7-2.78,12.08-3.88,13.59-6.3,8.62-17.05,8.85-18.41,8.85"/>
    <path class="cls-1" d="M346.58,178.15c-1,.46-5.97,2.89-7.69,8.39-1.92,6.13,1.66,11.43,2.33,12.43,3.83,5.67,8.89,5.25,16.54,10.02,3.68,2.29,8.51,6.14,13.09,12.85"/>
    <path class="cls-1" d="M348.64,204.91c-1.86,1.73-4.45,4.47-6.8,8.35-2.18,3.59-3.8,6.27-4.04,10.02-.43,6.66,3.81,11.72,5.05,13.2,3.78,4.52,6.5,4.17,10.17,7.61,2.91,2.73,6.3,7.72,7.03,17.59"/>
    <path class="cls-1" d="M384.4,224.83c1.36,1.2,5.06,4.81,5.82,10.49.6,4.47-.93,7.93-2.21,10.83-.56,1.26-2.97,6.45-8.47,11.11-8.08,6.83-17.36,7.87-21.13,8.08"/>
    <path class="cls-1" d="M344.75,239.08c-1.94.53-8.16,2.49-12.16,8.58-.97,1.48-3.29,5.12-3.15,9.98.07,2.19.62,4.27,4.04,10.56,3.86,7.12,5.37,8.56,6.76,11.34,1.96,3.94,3.54,10.31.89,20.54"/>
    <path class="cls-1" d="M335.43,271.7c-1.28-.02-9.38-.02-14.06,5.98-3.49,4.48-3.19,9.87-2.99,13.55.22,3.9,1.23,6.76,3.22,12.39,1.44,4.06,2.9,7.36,4,9.67"/>
    <path class="cls-1" d="M370.03,264.83c1.17.8,4.48,3.31,5.71,7.81,1.53,5.63-1.31,10.31-2.18,11.73-1,1.64-3.33,4.86-13.9,9.55-4.34,1.93-10.6,4.34-18.52,6.17"/>
    <path class="cls-1" d="M349.99,297.91c5.74,2.22,8.69,7.36,7.65,11.3-.9,3.39-4.95,5.08-6.64,5.79-1.97.82-4.48,1.4-10,1-3.65-.27-8.86-.98-15-3"/>
    <path class="cls-1" d="M238.18,124.46c-3.02-3.23-8.26-7.91-16-11-3.27-1.3-8.38-3.34-15-3-2.46.13-7.67,2.09-18,6-7.23,2.74-10.92,4.14-15,6-6.1,2.78-9.19,4.2-11,6-5.43,5.39-2.47,9.46-7,16-5.47,7.9-11.95,5.07-19,14-.7.88-4.46,5.76-6,13-2.02,9.51,2.14,12.01,0,20-1.24,4.62-4.16,8.08-10,15-7.88,9.34-10.48,9.09-12,14-.42,1.37-.8,3.26,2,18,2.58,13.54,3.08,12.92,3,16-.26,9.42-4.91,11.73-6,21-.49,4.16-.32,10.24,3,18"/>
    <path class="cls-1" d="M241.18,135.46c-2.66-1.73-6.61-3.64-11-3-6.14.9-8.01,6.06-14,10-7.43,4.89-11.86,1.78-24,4-5.68,1.04-20.89,3.71-30,15-7.57,9.38-8.36,20.72-9,30-1.09,15.81,3.65,18.14,0,28-.97,2.63-4.98,8.75-13,21-6,9.17-6.6,9.71-7,12-1.63,9.36,6.22,12.67,6,24-.1,5.07-1.76,8.76-5,16-5.31,11.84-9.64,13.46-9,19,.63,5.44,4.96,5.26,10,14,1.9,3.29,6.54,11.34,5,21-1.26,7.92-6.11,13.33-9,16"/>
    <path class="cls-1" d="M247.18,150.46c-3.06-1.25-7.51-2.47-12-1-5.39,1.76-6.63,6.02-13,11-1.8,1.4-7.2,5.63-14,7-11.96,2.42-17.17-6.22-26-3-5.75,2.1-9.69,8.01-11,13-2.11,8.04,3.29,11.2,6,28,1.23,7.58,1.86,11.87,0,17-1.62,4.46-4.77,7.7-11,14-9.66,9.77-13.03,10.48-13,14,.04,4.97,6.78,5.69,13,16,2.82,4.67,4.52,7.49,4,11-1.13,7.62-11.22,7.97-13,16-.97,4.37,1.1,8.38,4,14,4.51,8.74,8.38,9.11,9,14,.81,6.36-5.27,9.4-9,17-2.82,5.74-4.63,14.75,0,29"/>
    <path class="cls-1" d="M250.18,168.46c-4.42,14.37-10.72,19.22-15.64,21-5.26,1.9-7.42-.27-21.9,0-17.96.34-21.78,3.81-22.94,5-2.82,2.89-4.77,7.5-4.17,12,1.15,8.7,10.81,9.6,11.47,17,.5,5.56-4.44,10.73-10.43,17-6.17,6.46-9.28,6.85-9.39,10-.19,5.33,8.61,6.46,12.51,16,1.01,2.47,2.79,6.82,1.04,11-2.29,5.48-8.26,4.96-11.47,11-2.71,5.1-1.17,10.57-1.04,11,2.17,7.29,8.96,6.91,12.51,15,.47,1.07,2.8,6.37,1.04,12-1.75,5.62-5.75,5.71-9.39,12-3.87,6.7-3.29,13.47-3.13,15,1,9.3,7.32,15.22,9.39,17"/>
    <path class="cls-1" d="M264.18,172.46c-1.11,13.52,2.49,20.3,6,24,7.7,8.11,17.55,4.12,28,14,6.27,5.92,8.63,12.93,10,17,4.2,12.46,2.18,23.3,1,28"/>
    <path class="cls-1" d="M276.18,178.46c7.76,7.08,14.86,10.34,20,12,5.86,1.9,11.12,2.34,17,7,4.19,3.32,6.39,6.95,7,8,5.05,8.73,3.64,17.84,3,21"/>
    <polyline class="cls-2" points="232.99 373.87 222 396 300.02 403.1 225.17 370.46 235.43 353.9"/>
    <polyline class="cls-2" points="390.36 321 411 321 366.12 398.58 300.02 403.1 229 349 289 286 342 329 300.02 403.1 354.59 380.96"/>
    <path class="cls-2" d="M397,304l-55,25,55-25Z"/>
    <path class="cls-2" d="M354.59,380.96l42.41-76.96-42.41,76.96Z"/>
    <path class="cls-2" d="M226.93,396.45l-4.93,12.07h65.35l1.17,4.64c.87,3.44,3.96,5.84,7.51,5.84h0c2.51,0,4.86-1.21,6.31-3.26l2.66-3.74,79,12,37.66-81.52-19.86-5.58"/>
    <path class="cls-2" d="M279,312c8.69.63,12.31,3.48,14,6,2.6,3.88.72,7.1,4,11,2.74,3.25,5.36,2.58,10,6,3.53,2.6,5.7,5.71,7,8"/>
    <path class="cls-2" d="M260,342c2.41-.16,5.89,0,9,2,4.49,2.89,4.49,7.23,9,11,1.86,1.56,4.92,3.38,10,4"/>
    <path class="cls-2" d="M348,340c1.83.21,4.41.21,7-1,2.85-1.33,3.53-3.12,6-4,1.64-.58,4.18-.81,8,1"/>
    <path class="cls-2" d="M334,365c3.6-.23,6.22-1.15,8-2,2.28-1.09,3.92-2.43,6-2,1.38.28,2.37,1.22,3,2"/>
  </g>
</svg>