<?xml version="1.0" encoding="UTF-8"?>
<svg id="Layer_1" data-name="Layer 1" xmlns="http://www.w3.org/2000/svg" viewBox="0 0 512 512">
  <defs>
    <style>
      .cls-1 {
        stroke-width: 4px;
      }

      .cls-1, .cls-2 {
        fill: none;
        stroke: #0a0a0a;
        stroke-linecap: round;
        stroke-miterlimit: 10;
      }

      .cls-2 {
        stroke-width: 6px;
      }

      .cls-3 {
        fill: #e2c7e0;
      }
    </style>
  </defs>
  <circle class="cls-3" cx="175" cy="234" r="102"/>
  <g>
    <line class="cls-2" x1="94.33" y1="77.4" x2="247.12" y2="249.45"/>
    <path class="cls-2" d="M57.33,97.4c1.09-5.63,4.04-16.7,13-27,2.99-3.44,14.81-17.02,29-17,17.39.02,30.35,20.46,34,26,48.15,73.06,332.58,369.72,321,379-3.2,2.57-25.51-19.66-65-59-15.68-15.62-32.62-32.5-53-57-8.32-10.01-16.69-19.98-25-30,0,0-31.45-37.93-50-42-6.39-1.4-12,0-12,0,0,0,0,0,0,0-7.74,1.96-15.99,4.53-24.57,7.91-2.55,1-5.03,2.04-7.43,3.09"/>
    <line class="cls-1" x1="61.33" y1="106.4" x2="94.33" y2="77.4"/>
    <line class="cls-1" x1="73.93" y1="120.57" x2="106.93" y2="91.57"/>
    <line class="cls-1" x1="67.63" y1="113.49" x2="100.63" y2="84.49"/>
    <line class="cls-1" x1="245.49" y1="247.45" x2="212.49" y2="276.45"/>
    <line class="cls-1" x1="206.2" y1="269.36" x2="239.2" y2="240.36"/>
    <line class="cls-1" x1="199.9" y1="262.28" x2="232.9" y2="233.28"/>
    <line class="cls-1" x1="193.6" y1="255.19" x2="226.6" y2="226.19"/>
    <line class="cls-1" x1="187.3" y1="248.11" x2="220.3" y2="219.11"/>
    <line class="cls-1" x1="181" y1="241.02" x2="214" y2="212.02"/>
    <line class="cls-1" x1="174.7" y1="233.94" x2="207.7" y2="204.94"/>
    <line class="cls-1" x1="168.4" y1="226.85" x2="201.4" y2="197.85"/>
    <line class="cls-1" x1="162.11" y1="219.77" x2="195.11" y2="190.77"/>
    <line class="cls-1" x1="155.81" y1="212.68" x2="188.81" y2="183.68"/>
    <line class="cls-1" x1="149.51" y1="205.6" x2="182.51" y2="176.6"/>
    <line class="cls-1" x1="143.21" y1="198.51" x2="176.21" y2="169.51"/>
    <line class="cls-1" x1="136.91" y1="191.42" x2="169.91" y2="162.42"/>
    <line class="cls-1" x1="130.61" y1="184.34" x2="163.61" y2="155.34"/>
    <line class="cls-1" x1="124.31" y1="177.25" x2="157.31" y2="148.25"/>
    <line class="cls-1" x1="118.02" y1="170.17" x2="151.02" y2="141.17"/>
    <line class="cls-1" x1="111.72" y1="163.08" x2="144.72" y2="134.08"/>
    <line class="cls-1" x1="105.42" y1="156" x2="138.42" y2="127"/>
    <line class="cls-1" x1="99.12" y1="148.91" x2="132.12" y2="119.91"/>
    <line class="cls-1" x1="92.82" y1="141.83" x2="125.82" y2="112.83"/>
    <line class="cls-1" x1="86.52" y1="134.74" x2="119.52" y2="105.74"/>
    <line class="cls-1" x1="80.22" y1="127.66" x2="113.22" y2="98.66"/>
  </g>
</svg>